<svg width="176" height="75" viewBox="0 0 176 75" fill="none" xmlns="http://www.w3.org/2000/svg">
<path d="M122.434 11.0716C122.434 10.7233 122.368 8.54063 124.116 6.78648C124.736 6.16369 125.419 5.75574 126.082 5.49058C126.335 5.14875 126.618 4.81706 126.935 4.50035C127.252 4.18369 127.583 3.90139 127.925 3.64879C128.19 2.98522 128.597 2.30152 129.22 1.68101C130.974 -0.0666199 133.158 0.000299179 133.506 0.000348421L133.717 0.00132498C134.34 0.0114611 135.977 0.132004 137.434 1.35582C139.115 -0.0569259 141.037 0.000277701 141.363 0.000348421C141.709 0.000348421 143.894 -0.0669004 145.649 1.68101C146.271 2.30097 146.677 2.98481 146.942 3.64781C147.284 3.90066 147.617 4.18328 147.934 4.50035C148.251 4.81705 148.533 5.14974 148.786 5.49156C149.449 5.75668 150.133 6.16368 150.753 6.78648C152.283 8.32156 152.423 10.1849 152.434 10.8597V11.2836C152.424 11.9065 152.303 13.5437 151.079 15.0003C151.987 16.0815 152.288 17.2623 152.386 18.0541L153.609 18.1507C154.329 18.2072 155.471 18.4365 156.552 19.2865C157.624 20.1293 158.203 21.2411 158.441 22.2806C158.751 21.5055 159.333 20.5612 160.389 19.8441C161.447 19.126 162.553 18.9237 163.433 18.933L163.796 18.9496L170.961 19.5111C171.664 19.5662 173.684 19.8826 174.959 21.8939C176.196 23.8433 175.68 25.749 175.479 26.348L175.414 26.5404L175.334 26.7269L165.033 50.7992L163.715 68.3587L163.714 68.3666L163.713 68.3754C163.647 69.2269 163.308 70.7645 161.9 71.9681C160.492 73.1712 158.921 73.2653 158.07 73.1986L150.748 72.6254C149.722 72.5448 148.118 72.0929 146.971 70.5541C145.925 69.1509 145.901 67.6829 145.955 66.9828L145.956 66.975L145.957 66.9662L147.373 49.6507L142.507 29.9115C141.93 30.0089 141.501 30.0003 141.363 30.0003V29.0003C141.497 29.0003 141.854 29.0085 142.341 28.9261L143.256 28.7709L148.384 49.5697L148.371 49.7328L146.955 67.0482L146.954 67.0629L146.952 67.0765C146.908 67.662 146.938 68.8366 147.773 69.9564C148.694 71.1926 149.984 71.5622 150.827 71.6283L158.148 72.2015C158.851 72.2566 160.118 72.176 161.25 71.2084C162.384 70.24 162.662 68.9999 162.717 68.2972L162.718 68.2816L162.72 68.265L164.036 50.725L164.048 50.5589L164.114 50.4056L174.415 26.3334L174.479 26.182L174.531 26.0306C174.699 25.5278 175.108 23.9943 174.116 22.43C173.093 20.8171 171.472 20.5543 170.883 20.5082L163.731 19.9476L163.413 19.933C162.694 19.9268 161.803 20.094 160.952 20.6722C160.098 21.2516 159.625 22.015 159.37 22.6527L158.18 25.6253L157.466 22.5043C157.272 21.654 156.802 20.7542 155.935 20.0726C155.168 19.4698 154.361 19.2503 153.77 19.1732L153.531 19.1478L151.495 18.9867L151.394 18.1781C151.31 17.5055 151.058 16.5301 150.313 15.6439L149.773 15.0003L150.313 14.3578C151.309 13.1726 151.423 11.8281 151.434 11.2836V10.8597C151.422 10.2662 151.29 8.74171 150.045 7.49254C149.533 6.97826 148.969 6.64174 148.414 6.42027L148.151 6.3148L147.982 6.08629C147.756 5.78131 147.506 5.48656 147.227 5.20738C146.947 4.92774 146.653 4.67774 146.348 4.4525L146.12 4.28355L146.014 4.01988C145.792 3.46495 145.457 2.901 144.944 2.39C143.499 0.951242 141.695 1.00035 141.363 1.00035C141.054 1.0003 139.462 0.957903 138.078 2.12144L137.434 2.66246L136.791 2.12144C135.595 1.11591 134.236 1.01005 133.702 1.00133L133.504 1.00035C133.166 1.00013 131.367 0.954589 129.926 2.39C129.412 2.90215 129.075 3.46571 128.854 4.01988L128.748 4.28453L128.52 4.45347C128.216 4.67813 127.922 4.92765 127.642 5.20738C127.361 5.4879 127.111 5.78217 126.887 6.08531L126.718 6.31383L126.454 6.41929C125.901 6.64028 125.337 6.97776 124.825 7.49254C123.386 8.93638 123.434 10.7392 123.434 11.0716C123.434 11.3794 123.391 12.9729 124.554 14.3578L125.095 15.0003L124.554 15.6439C123.856 16.4748 123.591 17.3849 123.492 18.0511L123.366 18.8988L122.508 18.9027C121.784 18.9065 121.053 18.9584 120.317 19.058C117.423 19.4496 114.796 20.5652 112.507 22.3753L112.505 22.3763C111.132 23.4569 109.961 24.7106 108.993 26.1205L107.204 25.2875C107.375 24.6713 107.506 23.6447 107.011 22.5238C106.541 21.4607 105.749 20.8494 105.106 20.5238L104.84 20.4017C104.215 20.1401 103.663 20.0884 103.374 20.0746L96.0385 19.724C94.3419 19.6432 93.1763 20.534 92.6771 20.9877L92.3744 21.2611L89.6937 24.9339L89.267 22.6615C89.1699 22.1447 88.9627 21.5412 88.5326 20.9476C87.6089 19.6731 86.2722 19.2587 85.3012 19.2123L78.1215 18.8695C77.1508 18.8233 75.7806 19.1087 74.7396 20.2894C73.9588 21.1754 73.7475 22.1466 73.6888 22.7357L73.6713 22.9642L72.2474 51.1166L70.2933 51.3607L61.2201 21.9291L61.1683 21.7972L61.058 21.5384L60.9388 21.3021C60.6367 20.7409 60.1516 20.1257 59.39 19.6615C58.5078 19.124 57.6066 19.0032 56.8861 19.0462L56.8851 19.0453L56.5716 19.0746L47.3851 20.2513C46.6297 20.3481 45.6454 20.6772 44.8246 21.5257C44.3578 22.0084 44.066 22.5334 43.8851 23.0267L43.1869 24.9291L42.1019 23.2181C41.9806 23.0269 41.8433 22.84 41.6839 22.6615C40.7342 21.5978 39.5599 21.3367 38.9584 21.267L31.1654 20.3636C29.5802 20.1802 28.21 20.8286 27.3089 21.7787L27.2572 21.8334L27.2015 21.8968L27.2005 21.8988L24.2669 25.2503L22.1644 21.3109L22.1214 21.2318L22.0873 21.1732C21.5204 20.2019 20.4078 19.1178 18.6869 18.9183L10.9369 18.0199L10.6273 17.9935C9.89379 17.9604 8.80393 18.0923 7.78842 18.8968C6.62685 19.8173 6.30053 21.037 6.21713 21.7396L1.03842 65.3441V65.3617L1.03061 65.4115L1.03158 65.4125C0.970172 65.9425 0.927507 67.0834 1.64877 68.2357L1.81088 68.4759C2.64633 69.6315 3.85086 70.0809 4.75619 70.1859L11.9574 71.0199C12.9232 71.1318 14.3106 70.9404 15.4291 69.8324C16.3901 68.8802 16.6125 67.7666 16.6751 67.2337L18.9847 47.6234L21.183 51.807L24.3851 48.1478L22.14 67.8568V67.8587C22.0786 68.3889 22.0359 69.5298 22.7572 70.682C23.5924 72.016 24.8985 72.5191 25.8646 72.6312L33.0668 73.4662C34.0324 73.578 35.419 73.3866 36.5375 72.2787C37.5033 71.3218 37.7231 70.2011 37.7845 69.6712L37.7865 69.6586V69.6556L37.7875 69.6478L40.5443 45.2445L42.5365 45.4086L41.3119 69.2806L41.3578 69.6351C41.4255 70.1641 41.6592 71.2817 42.6361 72.2269C43.7678 73.3215 45.1574 73.4977 46.1214 73.3744L53.1879 72.4691L53.5199 72.4134C54.3215 72.2471 55.3026 71.8118 56.0521 70.8421C56.7828 69.8969 56.9394 68.8943 56.9486 68.2279L56.9818 65.8607L57.9398 66.8187L58.7611 66.7054L58.7826 66.7816L58.7904 66.7787L59.1136 67.9505C59.3129 68.6719 59.772 69.6471 60.8002 70.3666C61.9231 71.1522 63.1031 71.1995 63.8509 71.1039L70.8881 70.2035C71.1259 70.173 71.4372 70.1092 71.7797 69.9896L72.3519 69.7894L72.7943 70.2045C73.6504 71.0088 74.6982 71.2983 75.4935 71.3363L82.7357 71.682C83.7065 71.7282 85.0765 71.4422 86.1176 70.2611C87.0164 69.2412 87.1614 68.1093 87.1869 67.5765L87.2221 66.8334L89.1478 66.5062L90.2758 69.3011L90.2846 69.3226L90.2914 69.3431C90.5494 70.0763 91.025 70.8117 91.7914 71.3773C92.6885 72.0392 93.6232 72.2012 94.2221 72.2298L102.026 72.6019C102.256 72.6129 102.606 72.616 103.01 72.555C103.359 72.5024 104.116 72.3502 104.879 71.7972C105.815 71.1187 106.507 70.0067 106.571 68.6732C106.61 67.8501 106.396 67.1872 106.203 66.7572L106.196 66.7425L106.19 66.7289L95.935 41.9232L96.2475 41.475L105.766 27.7806L107.496 28.767C107.459 28.8498 107.432 28.9055 107.404 28.9701L107.395 28.9877C106.185 31.7552 105.815 34.7052 106.226 37.7416C106.653 40.8978 107.748 43.7732 109.568 46.2709L109.571 46.2757L109.577 46.2845L109.595 46.308L109.596 46.3099C110.227 47.1547 110.935 47.9242 111.707 48.6253L112.965 49.7679L111.356 50.3128C110.639 50.5558 109.83 51.0287 109.211 51.9271C108.386 53.1254 108.412 54.3595 108.498 54.9994L108.892 57.9105C109.27 60.705 110.268 63.2633 111.889 65.5189L112.222 65.9662L112.23 65.9759L112.237 65.9857L112.248 66.0013L112.252 66.0062C114.046 68.2764 116.28 70.0177 118.916 71.1859L118.918 71.1869L118.927 71.1908L118.935 71.1937C121.671 72.3903 124.565 72.7867 127.533 72.3851C130.5 71.9836 133.19 70.8747 135.509 69.0375C137.775 67.2422 139.484 64.973 140.616 62.2943L140.631 62.2582C141.777 59.4807 142.099 56.5209 141.687 53.472C141.259 50.3077 140.068 47.4678 137.934 45.2123L137.93 45.2084C137.687 44.949 137.437 44.6978 137.18 44.4554L136.159 43.4935L137.402 42.8421C137.874 42.5949 138.362 42.2294 138.783 41.6771C139.685 40.4919 139.695 39.2225 139.601 38.5238L138.897 33.3207C138.737 32.1388 138.465 31.0019 138.082 29.9164L137.358 27.8617L139.388 28.6517C140.338 29.0214 141.155 29.0004 141.363 29.0003V30.0003C141.139 30.0004 140.161 30.0254 139.025 29.5834C139.431 30.7355 139.718 31.9389 139.887 33.1859L140.591 38.389C140.706 39.2355 140.7 40.809 139.578 42.2826C139.057 42.9665 138.45 43.4221 137.866 43.7279C138.138 43.9845 138.403 44.2504 138.66 44.5248C140.962 46.9588 142.226 50.0047 142.677 53.3373C143.112 56.5473 142.773 59.689 141.552 62.6459L141.537 62.683C140.341 65.513 138.53 67.9188 136.13 69.8207C133.664 71.7752 130.802 72.951 127.666 73.3754C124.519 73.8012 121.44 73.3808 118.534 72.1097L118.522 72.1048L118.511 72.1C115.725 70.8651 113.36 69.0216 111.467 66.6254L111.448 66.6009L111.429 66.5755C109.501 64.0698 108.327 61.1923 107.901 58.0443L107.507 55.1332C107.404 54.3664 107.364 52.8441 108.387 51.3597C109.153 50.2482 110.159 49.6625 111.035 49.3656C110.217 48.6235 109.466 47.8064 108.794 46.9076L108.777 46.8841L108.759 46.8597C106.833 44.2159 105.682 41.1805 105.235 37.8753C104.801 34.6686 105.191 31.5329 106.479 28.5873L106.484 28.5765L106.489 28.5648C106.52 28.4931 106.554 28.4221 106.586 28.3509L97.0678 42.0453L107.114 66.3461C107.351 66.8738 107.618 67.6959 107.569 68.7201C107.489 70.382 106.627 71.7649 105.465 72.6068C104.518 73.293 103.582 73.4794 103.159 73.5433C102.668 73.6174 102.247 73.6128 101.978 73.6L94.1742 73.2279C93.4527 73.1934 92.3045 72.9986 91.1976 72.182C90.2511 71.4835 89.6643 70.5741 89.348 69.6752L88.2201 66.8802L88.1849 67.6234C88.1545 68.2612 87.9813 69.6585 86.8676 70.9222C85.5735 72.3904 83.8733 72.7365 82.6879 72.68L75.4457 72.3343C74.4711 72.2878 73.1767 71.9365 72.1088 70.933C71.6951 71.0774 71.3156 71.1562 71.015 71.1947L63.9779 72.0951C63.0734 72.2108 61.6176 72.1588 60.2269 71.1859C58.9528 70.2943 58.3902 69.0866 58.1498 68.2162L58.1478 68.2171L58.0345 67.8148L57.9564 67.8255L57.9496 68.2425L57.9486 68.2416C57.9375 69.0445 57.748 70.2828 56.8431 71.4535C55.7811 72.8274 54.3464 73.3282 53.3148 73.4603L46.2484 74.3656C45.0712 74.5162 43.3476 74.3063 41.9408 72.9457C40.7305 71.7747 40.4466 70.3952 40.3656 69.7621L40.3089 69.3187L40.3314 68.8714L41.5375 45.3568L38.7796 69.7718L38.7787 69.7796L38.7777 69.7865C38.7042 70.4207 38.4372 71.8032 37.2406 72.9886C35.8501 74.3659 34.1305 74.5959 32.9515 74.4593L25.7494 73.6244C24.5704 73.4876 22.948 72.871 21.9095 71.2123C21.016 69.7848 21.0724 68.3777 21.1459 67.7435L23.0287 51.2162L20.9759 53.5628L19.6 50.9447L17.6683 67.35C17.5933 67.9882 17.3229 69.3626 16.1322 70.5423C14.7416 71.9199 13.0211 72.1497 11.8421 72.013L4.64096 71.1791C3.462 71.0424 1.83971 70.4248 0.801114 68.766C-0.0923581 67.3384 -0.0360219 65.9313 0.0374423 65.2972L0.0384188 65.2904V65.2836L5.22397 21.6214C5.32504 20.7703 5.72336 19.2568 7.16733 18.1127C8.43766 17.1062 9.80139 16.9523 10.6908 16.9955L11.0414 17.0248L18.8021 17.9242C20.9183 18.1694 22.2723 19.5072 22.9505 20.6693L22.9984 20.7513L23.0433 20.8343L24.4671 23.5023L26.4476 21.2396L26.514 21.1634L26.5834 21.0902C27.671 19.9434 29.3419 19.1451 31.2806 19.3695L39.0726 20.2728C39.7966 20.3567 41.2501 20.6753 42.4291 21.9955C42.6289 22.2193 42.7988 22.4506 42.9457 22.682C43.1681 22.0753 43.5296 21.4262 44.1058 20.8304C45.1216 19.7803 46.3369 19.3771 47.2582 19.2591L56.4642 18.0804L56.8256 18.0472C57.7042 17.9946 58.8189 18.1419 59.9105 18.807C60.9869 19.4631 61.6139 20.3633 61.9642 21.1166L62.098 21.43L62.1654 21.6009L71.2484 51.0658L72.6722 22.9134C72.7045 22.2695 72.883 20.8828 73.9887 19.6283C75.2826 18.1603 76.9829 17.8141 78.1683 17.8705L85.348 18.2132C86.5334 18.2698 88.1936 18.776 89.3422 20.3607C89.8748 21.0957 90.1305 21.8439 90.2494 22.4769L91.6283 20.5892L92.0043 20.2474C92.5805 19.7236 93.9979 18.6257 96.0853 18.725L103.421 19.0755C103.771 19.0922 104.452 19.1551 105.226 19.4789C106.058 19.8273 107.255 20.6026 107.925 22.1195C108.544 23.5194 108.377 24.7989 108.167 25.5541C109.193 24.0608 110.434 22.7331 111.886 21.5902C114.316 19.6687 117.111 18.4824 120.182 18.0668C120.96 17.9615 121.734 17.9068 122.502 17.9027C122.62 17.1167 122.937 16.0144 123.788 15.0003C122.376 13.3187 122.434 11.3952 122.434 11.0716ZM10.5814 20.9984L18.3421 21.8978L18.3724 21.9017L18.4017 21.9066L18.4623 21.9173L18.4964 21.9232L18.5296 21.932C18.9379 22.0338 19.2272 22.2871 19.4193 22.5648L19.4964 22.6849L19.5062 22.7015L19.515 22.7181L23.6664 30.4955L29.4593 23.8724L29.472 23.8578L29.4867 23.8431C29.8184 23.4935 30.2837 23.281 30.8207 23.3431L38.638 24.2494L38.6625 24.2533L38.7269 24.264L38.764 24.2709L38.8011 24.2796C39.0307 24.3361 39.3287 24.4725 39.5384 24.7777C39.7469 25.0811 39.7681 25.4053 39.7416 25.6351L34.805 69.3236L34.8021 69.348L34.7982 69.3714L34.7865 69.4437L34.7816 69.4779L34.7728 69.5111C34.7225 69.7263 34.602 70.0252 34.3119 70.2474C34.0084 70.4798 33.6688 70.5163 33.4125 70.4867L26.2113 69.6527C25.9077 69.6175 25.5366 69.466 25.3011 69.0902C25.0944 68.7602 25.0951 68.4156 25.1195 68.2045L28.4525 38.9418L21.806 46.5404L17.138 37.6546L13.6957 66.8793L13.6966 66.8802C13.6723 67.0899 13.5945 67.4268 13.3167 67.7015C13.0005 68.0143 12.6049 68.0751 12.304 68.0404L5.1019 67.2064C4.8452 67.1766 4.52094 67.0629 4.27866 66.766C4.04803 66.4833 3.99925 66.1659 3.99936 65.9466V65.9134L4.00229 65.8802L4.00717 65.807L4.00815 65.7816L4.01205 65.7562L9.19565 22.0961C9.22313 21.8595 9.32483 21.5074 9.6517 21.2484C9.97869 20.9894 10.3449 20.971 10.5814 20.9984ZM57.1703 22.0375C57.3772 22.0398 57.6073 22.0884 57.8285 22.223C58.1199 22.4004 58.2843 22.659 58.3724 22.8841L58.3861 22.9193L58.3968 22.9545L71.5443 65.599L71.5551 65.6332L71.5629 65.6683C71.6132 65.8864 71.6558 66.2754 71.4242 66.6537C71.1743 67.0617 70.773 67.1928 70.5072 67.2269L63.4711 68.1283L63.434 68.1332L63.3236 68.139L63.2914 68.141L63.2582 68.14C62.9877 68.1368 62.6755 68.0554 62.4105 67.8226C62.1726 67.6136 62.0579 67.3547 62.0013 67.138L61.9994 67.139L60.9545 63.4086L54.0209 64.2962L53.9506 68.1703L53.9486 68.1693C53.9486 68.4061 53.899 68.7226 53.6781 69.0082C53.43 69.3287 53.0884 69.4575 52.807 69.4935L45.7396 70.3978C45.4377 70.4362 45.0404 70.3794 44.7211 70.0697C44.4414 69.7983 44.361 69.4628 44.3343 69.2543L44.3226 69.1654L44.3275 69.0765L46.6166 24.4564L46.6175 24.4232L46.6214 24.39C46.6498 24.15 46.744 23.8579 46.9808 23.6127C47.2205 23.3646 47.5147 23.2601 47.766 23.2279L56.972 22.0492L57.1703 22.0375ZM77.9769 21.8666L77.9779 21.8675L85.1576 22.2093C85.4621 22.2239 85.8432 22.3485 86.1039 22.7093C86.332 23.0253 86.3531 23.3697 86.3432 23.5795L85.7797 35.388L94.56 23.3587L94.6205 23.2767L94.6957 23.2084C94.9505 22.9768 95.3619 22.6966 95.8959 22.722L103.231 23.0716L103.261 23.0726L103.29 23.0755L103.354 23.0824L103.393 23.0873L103.431 23.0941C103.637 23.1327 104.208 23.3118 104.338 23.9613C104.434 24.4374 104.185 24.8002 104.119 24.8959L104.117 24.8978L103.982 25.0892L103.983 25.0902L92.5375 41.557L103.454 67.9632C103.517 68.0937 103.585 68.2897 103.574 68.5296C103.556 68.8864 103.373 69.1834 103.12 69.3675C102.909 69.5206 102.69 69.5689 102.563 69.5882C102.422 69.6095 102.286 69.6104 102.169 69.6048L94.3646 69.2318C94.1372 69.2208 93.8421 69.1622 93.5726 68.9632C93.3216 68.7778 93.1712 68.529 93.098 68.2767L86.0609 50.8412L84.9017 52.4896L84.1898 67.433L84.1889 67.4623L84.1859 67.4916L84.1752 67.5921L84.1703 67.6205C84.1348 67.837 84.0352 68.1425 83.7611 68.3841C83.5096 68.6058 83.2202 68.6782 82.9799 68.6849L82.8793 68.6839L75.6371 68.3392C75.3325 68.3245 74.9502 68.1998 74.6898 67.8392C74.4618 67.5234 74.4416 67.179 74.4515 66.9691V66.9662L76.6674 23.1156C76.6778 22.9039 76.7329 22.5643 76.9906 22.2728C77.2847 21.9402 77.6745 21.8525 77.9769 21.8666ZM120.718 22.0316C122.989 21.7243 125.172 21.9677 127.248 22.7679L127.663 22.9359L127.67 22.9388C129.851 23.8842 131.683 25.2885 133.154 27.1429L133.43 27.4984C134.778 29.2952 135.607 31.3775 135.924 33.723L136.627 38.9252C136.659 39.1594 136.649 39.5262 136.396 39.8587C136.143 40.1914 135.792 40.2995 135.557 40.3314L128.435 41.2953C128.2 41.3271 127.834 41.3164 127.501 41.0638C127.174 40.8148 127.064 40.471 127.031 40.2357L127.03 40.2367L126.263 35.0423L126.262 35.0306C126.102 33.8481 125.641 32.9905 124.913 32.3763L124.763 32.2572C123.913 31.6098 123.011 31.3707 122.001 31.5072C120.988 31.6443 120.181 32.1328 119.538 33.0355L119.418 33.2093L119.419 33.2103C118.867 34.0631 118.659 34.9871 118.796 36.0267L118.874 36.5023C119.069 37.5118 119.423 38.2881 119.904 38.8744L120.015 38.9984L120.254 39.2328C120.859 39.7773 121.785 40.3136 123.101 40.8099L123.54 40.9711L123.549 40.974C123.757 41.0525 124.023 41.1552 124.347 41.2806C124.995 41.5316 125.709 41.8144 126.49 42.1302C127.269 42.416 127.977 42.6827 128.614 42.9291C129.257 43.1588 129.636 43.2928 129.76 43.3353L129.783 43.3431L129.804 43.3519C132.037 44.2313 133.925 45.426 135.442 46.9496L135.741 47.2591L135.751 47.2699L136.02 47.5658L136.027 47.5736L136.033 47.5804C137.495 49.2581 138.376 51.3747 138.714 53.8744L138.716 53.89L138.77 54.3412L138.772 54.3548C139.025 56.7518 138.725 59.0131 137.855 61.1195L137.851 61.1302L137.846 61.14L137.677 61.5248L137.674 61.5316L137.671 61.5394C136.736 63.5838 135.391 65.3032 133.646 66.6859C131.771 68.1717 129.591 69.0785 127.131 69.4115L127.123 69.4125L127.117 69.4134L126.696 69.4642L126.678 69.4662C124.409 69.6987 122.222 69.3578 120.136 68.4457L120.131 68.4437C117.946 67.4753 116.102 66.039 114.607 64.1468L114.599 64.1371C113.111 62.2041 112.201 59.9873 111.866 57.5082L111.471 54.597C111.438 54.3522 111.442 53.9767 111.681 53.6293C111.934 53.2618 112.309 53.1275 112.591 53.0892L119.714 52.1253C120.052 52.0799 120.459 52.1613 120.769 52.4857C121.029 52.7575 121.105 53.0846 121.133 53.2894L121.524 56.18L121.562 56.4252C121.748 57.4508 122.236 58.2851 123.049 58.9632L123.212 59.0912L123.497 59.2855C124.165 59.702 124.866 59.8662 125.625 59.8021L125.848 59.7777C126.81 59.6427 127.574 59.1962 128.186 58.3978L128.313 58.222C128.962 57.2643 129.199 56.2654 129.052 55.182C128.921 54.2139 128.216 53.2826 126.465 52.4916L126.068 52.3226L126.057 52.3177L126.047 52.3138C125.881 52.2387 125.687 52.1556 125.465 52.0658L124.697 51.7669L124.663 51.7533C124.122 51.5207 123.469 51.2591 122.703 50.9681C121.927 50.6736 121.172 50.3865 120.44 50.1068L120.429 50.1029L120.418 50.098C119.69 49.8004 118.985 49.5208 118.305 49.2591L118.29 49.2533L118.277 49.2474C115.641 48.1391 113.533 46.5669 111.999 44.514L111.993 44.5043C110.492 42.4447 109.565 40.0481 109.199 37.3392C108.857 34.8153 109.167 32.4242 110.144 30.1908L110.146 30.1859C111.052 28.1423 112.344 26.4121 114.021 25.0091L114.033 24.9994L114.348 24.7435L114.357 24.7367C116.226 23.256 118.352 22.3519 120.718 22.0316ZM57.099 23.0404L47.8929 24.2191C47.728 24.2404 47.6348 24.3369 47.6146 24.5072L45.3255 69.1273C45.352 69.3337 45.4477 69.4265 45.6127 69.4056L52.68 68.5013C52.8659 68.4775 52.9562 68.3607 52.9506 68.1517L53.0375 63.4144L61.6849 62.307L62.9623 66.8695C63.0035 67.048 63.1065 67.138 63.2699 67.14L63.3431 67.1361L70.3793 66.2347C70.5653 66.2109 70.6354 66.0969 70.5883 65.8929L57.4408 23.2484C57.3782 23.0889 57.2641 23.0193 57.099 23.0404ZM147.434 11.0716C147.434 10.4826 147.315 10.0005 146.006 10.0003C145.819 10.0004 145.655 10.01 145.513 10.0287C145.015 8.36045 144.074 7.41903 142.406 6.92125C142.424 6.77954 142.434 6.61633 142.434 6.42906C142.434 5.11986 141.952 5.00035 141.363 5.00035C140.774 5.00043 140.292 5.1203 140.291 6.42906C140.291 6.46736 140.292 6.50508 140.292 6.54136C139.46 6.4616 138.512 6.42906 137.434 6.42906C136.356 6.42907 135.408 6.46157 134.576 6.54136C134.576 6.50507 134.578 6.46736 134.578 6.42906C134.577 5.12022 134.095 5.00041 133.506 5.00035C132.917 5.0004 132.434 5.12014 132.434 6.42906C132.434 6.6163 132.445 6.77955 132.463 6.92125C130.795 7.41909 129.853 8.36028 129.355 10.0287C129.213 10.0101 129.05 10.0003 128.863 10.0003C127.554 10.0005 127.434 10.4827 127.434 11.0716C127.434 11.6608 127.554 12.1428 128.863 12.1429C128.901 12.1429 128.939 12.1427 128.975 12.1419C128.895 12.9743 128.863 13.9224 128.863 15.0003C128.863 16.0783 128.895 17.0264 128.975 17.8587C128.939 17.858 128.901 17.8578 128.863 17.8578C127.554 17.8579 127.434 18.34 127.434 18.9291C127.434 19.5182 127.554 20.0002 128.863 20.0003C129.05 20.0003 129.213 19.9907 129.355 19.972C129.853 21.6405 130.795 22.5816 132.463 23.0795C132.445 23.2212 132.434 23.3844 132.434 23.5716C132.434 24.8809 132.917 25.0003 133.506 25.0003C134.095 25.0003 134.578 24.8808 134.578 23.5716C134.578 23.5333 134.576 23.4956 134.576 23.4593C135.408 23.5391 136.356 23.5716 137.434 23.5716C138.512 23.5716 139.46 23.5391 140.292 23.4593C140.292 23.4956 140.291 23.5333 140.291 23.5716C140.291 24.8807 140.774 25.0003 141.363 25.0003C141.952 25.0003 142.434 24.8811 142.434 23.5716C142.434 23.3844 142.424 23.2212 142.406 23.0795C144.074 22.5816 145.015 21.6406 145.513 19.972C145.655 19.9907 145.819 20.0003 146.006 20.0003C147.315 20.0002 147.434 19.5182 147.434 18.9291C147.434 18.34 147.315 17.8579 146.006 17.8578C145.968 17.8578 145.929 17.858 145.893 17.8587C145.973 17.0264 146.006 16.0783 146.006 15.0003C146.006 13.9224 145.973 12.9743 145.893 12.1419C145.929 12.1427 145.968 12.1429 146.006 12.1429C147.315 12.1428 147.434 11.6608 147.434 11.0716ZM77.9301 22.8656C77.7642 22.858 77.6754 22.9578 77.6654 23.1654L75.4496 67.016C75.4397 67.2238 75.5178 67.3321 75.684 67.3402L82.9262 67.6849C83.0715 67.6917 83.1571 67.6165 83.183 67.4584L83.1908 67.3851L83.9174 52.1527L86.3002 48.7621L94.0502 67.9652C94.0838 68.1335 94.2048 68.2227 94.4125 68.2328L102.216 68.6058C102.528 68.6207 102.637 68.5419 102.54 68.3705L91.4047 41.4349L103.162 24.5189L103.296 24.3255C103.394 24.1843 103.377 24.1011 103.246 24.0765L103.183 24.0697L95.848 23.7201C95.7025 23.7133 95.5418 23.7892 95.3676 23.9476L84.6224 38.6703L85.3441 23.5316C85.3539 23.3237 85.2761 23.2153 85.1098 23.2074L77.9301 22.8656ZM127.272 23.8558C125.243 22.9955 123.102 22.7173 120.852 23.0218C118.664 23.3181 116.706 24.151 114.978 25.5199L114.662 25.7757C113.107 27.0777 111.906 28.6831 111.06 30.5912C110.161 32.6466 109.871 34.8514 110.189 37.2044C110.535 39.7642 111.406 42.0018 112.8 43.9154C114.212 45.8055 116.167 47.2759 118.663 48.3255C119.351 48.5898 120.062 48.8723 120.796 49.1722C121.528 49.4516 122.282 49.7382 123.057 50.0326C123.832 50.327 124.5 50.5945 125.058 50.8343L125.84 51.138C126.073 51.2324 126.28 51.321 126.458 51.4017L126.856 51.5707C128.784 52.4368 129.846 53.5959 130.042 55.0472C130.224 56.3891 129.921 57.6393 129.131 58.7972L128.98 59.0052C128.206 60.0152 127.2 60.6041 125.961 60.7718L125.718 60.7982C124.593 60.8951 123.559 60.594 122.616 59.8939L122.415 59.7377C121.416 58.9071 120.802 57.8578 120.576 56.5902L120.536 56.3343L120.142 53.4232C120.111 53.1965 120.013 53.0934 119.848 53.1156L112.725 54.0794C112.519 54.1075 112.431 54.2357 112.461 54.4623L112.856 57.3734C113.169 59.6854 114.014 61.7371 115.391 63.5267C116.786 65.2928 118.502 66.6268 120.537 67.5287C122.464 68.3716 124.477 68.686 126.576 68.4711L126.996 68.4203C129.288 68.1101 131.297 67.2706 133.025 65.9017C134.645 64.6182 135.89 63.0251 136.761 61.1224L136.93 60.7377C137.732 58.7963 138.014 56.7035 137.777 54.4593L137.723 54.0082C137.406 51.6664 136.591 49.7427 135.279 48.2377L135.01 47.9418C133.56 46.3932 131.702 45.1733 129.437 44.2816C129.304 44.2362 128.917 44.0988 128.278 43.8705C127.635 43.6212 126.915 43.3505 126.119 43.0589C125.34 42.7439 124.629 42.4615 123.986 42.2123C123.664 42.0877 123.401 41.9869 123.196 41.9095L122.756 41.7484C121.178 41.154 120.021 40.4653 119.286 39.683L119.144 39.5248C118.528 38.7804 118.11 37.8319 117.89 36.68L117.807 36.1742C117.634 34.8971 117.892 33.7274 118.579 32.6664L118.723 32.4554C119.518 31.3389 120.566 30.692 121.867 30.516C123.146 30.3428 124.314 30.6582 125.369 31.4613C126.423 32.2645 127.051 33.4096 127.252 34.8959L128.019 40.0902C128.041 40.2551 128.135 40.3263 128.3 40.3041L135.422 39.3402C135.587 39.3178 135.658 39.2241 135.636 39.0589L134.933 33.8568C134.617 31.5241 133.764 29.4948 132.374 27.7699C131.005 26.0422 129.304 24.737 127.272 23.8558ZM146.115 22.5785C145.949 22.5656 145.879 22.6441 145.908 22.8128L152.424 49.2474L150.941 67.3744L150.939 67.433C150.945 67.5611 151.012 67.6299 151.139 67.64L158.46 68.2142C158.606 68.2256 158.692 68.1683 158.72 68.0423L158.729 67.9847L160.108 49.599L170.507 25.2962L170.738 24.7601C170.785 24.6175 170.749 24.5319 170.627 24.5043L170.571 24.4964L163.405 23.9339C163.239 23.9213 163.128 23.9962 163.074 24.1586L156.93 40.9486L153.572 23.4144C153.547 23.2664 153.453 23.1758 153.291 23.1449L153.218 23.1351L146.115 22.5785ZM54.6595 38.1918L59.5453 55.682L53.4388 56.4632L54.0091 38.2748L53.9857 35.8832L54.6595 38.1918ZM54.475 55.3226L58.2709 54.8373L54.8715 42.6693L54.475 55.3226ZM143.578 15.0003C143.578 13.2046 143.475 11.9924 143.297 11.1586C143.121 10.3332 142.887 9.96002 142.682 9.75523C142.477 9.55009 142.102 9.31544 141.277 9.13902C140.443 8.96076 139.23 8.85777 137.434 8.85777C135.638 8.8578 134.426 8.96073 133.592 9.13902C132.767 9.31539 132.393 9.5491 132.188 9.75425C131.983 9.95953 131.749 10.3336 131.573 11.1586C131.395 11.9922 131.291 13.2044 131.291 15.0003C131.291 16.7966 131.395 18.0091 131.573 18.8431C131.749 19.6686 131.983 20.0422 132.188 20.2474C132.393 20.4525 132.767 20.6864 133.592 20.8627C134.426 21.0407 135.638 21.1429 137.434 21.1429V22.1429C133.792 22.1429 132.258 21.7323 131.48 20.9545C130.702 20.1764 130.291 18.6424 130.291 15.0003C130.291 11.3582 130.702 9.82516 131.48 9.04722C132.258 8.26942 133.792 7.85783 137.434 7.85777C141.076 7.85777 142.611 8.2696 143.389 9.04722C144.167 9.82448 144.578 11.3584 144.578 15.0003C144.578 18.6427 144.167 20.1765 143.389 20.9545C142.611 21.7323 141.077 22.1429 137.434 22.1429V21.1429C139.23 21.1429 140.444 21.0408 141.278 20.8627C142.103 20.6863 142.477 20.4525 142.682 20.2474C142.887 20.0422 143.121 19.6685 143.297 18.8431C143.475 18.0091 143.578 16.7964 143.578 15.0003ZM140.291 15.0003C140.291 13.567 140.095 12.9564 139.787 12.6478C139.478 12.3395 138.867 12.1429 137.434 12.1429C136.001 12.143 135.391 12.3395 135.082 12.6478C134.774 12.9564 134.578 13.5671 134.578 15.0003L134.586 15.5003C134.628 16.5812 134.813 17.0828 135.082 17.3529C135.391 17.6612 136.001 17.8577 137.434 17.8578C138.867 17.8578 139.478 17.6613 139.787 17.3529C140.095 17.0443 140.291 16.4339 140.291 15.0003ZM137.863 15.0003C137.863 14.8391 137.86 14.6996 137.855 14.5794C137.735 14.5746 137.595 14.5716 137.434 14.5716C137.273 14.5716 137.134 14.5746 137.014 14.5794C137.009 14.6996 137.006 14.8391 137.006 15.0003L137.014 15.4105V15.4203C137.017 15.4204 137.021 15.4211 137.025 15.4212L137.434 15.4291C137.595 15.4291 137.735 15.4261 137.855 15.4212C137.86 15.3012 137.863 15.1614 137.863 15.0003ZM4.99936 65.9466C4.99923 66.1067 5.07176 66.1953 5.21616 66.2123L12.4183 67.0462C12.5838 67.0654 12.6785 66.9719 12.7025 66.765L16.5228 34.3334L22.013 44.7845L29.8089 35.8724L26.1127 68.3187C26.0887 68.5255 26.1603 68.6392 26.3255 68.6586L33.5267 69.4925C33.6715 69.5093 33.7627 69.4397 33.7992 69.2836L33.8109 69.2113L38.7474 25.5199C38.7641 25.3751 38.7025 25.2849 38.5619 25.2503L38.4974 25.2396L30.7054 24.3363C30.5195 24.3149 30.3545 24.3797 30.2113 24.5306L23.4662 32.2435L18.6322 23.1888C18.5405 23.032 18.4253 22.9361 18.2875 22.9017L18.2269 22.891L10.4662 21.9916C10.301 21.9726 10.2081 22.0461 10.1888 22.2113L5.00424 65.8734L4.99936 65.9466ZM138.863 15.0003C138.863 15.6666 138.816 16.0528 138.765 16.2689C138.761 16.2868 138.756 16.3035 138.752 16.3177C138.738 16.3216 138.721 16.3262 138.704 16.3304C138.487 16.3815 138.101 16.4291 137.434 16.4291L136.985 16.4203C136.585 16.4046 136.327 16.3688 136.165 16.3304C136.147 16.3262 136.131 16.3216 136.117 16.3177C136.113 16.3035 136.108 16.2868 136.104 16.2689C136.066 16.1069 136.03 15.849 136.014 15.4496L136.006 15.0003C136.006 14.334 136.053 13.9478 136.104 13.7318C136.108 13.7138 136.113 13.6972 136.117 13.683C136.131 13.6791 136.147 13.6745 136.165 13.6703C136.381 13.6191 136.768 13.5717 137.434 13.5716C138.1 13.5716 138.487 13.6192 138.704 13.6703C138.721 13.6745 138.738 13.6791 138.752 13.683C138.756 13.6972 138.761 13.7139 138.765 13.7318C138.816 13.9478 138.863 14.334 138.863 15.0003ZM141.291 15.0003C141.291 16.4241 141.121 17.4325 140.494 18.0599C139.866 18.6867 138.857 18.8578 137.434 18.8578C136.011 18.8577 135.004 18.6873 134.376 18.0609L134.375 18.0599C133.818 17.502 133.63 16.6546 133.587 15.5394V15.5179L133.579 15.0179L133.578 15.0091V15.0003C133.578 13.5768 133.748 12.5681 134.375 11.9408C135.003 11.3143 136.011 11.143 137.434 11.1429C138.858 11.1429 139.866 11.3139 140.494 11.9408C141.121 12.5681 141.291 13.5768 141.291 15.0003ZM148.434 11.0716C148.434 11.3763 148.424 12.0281 147.92 12.5345C147.655 12.8014 147.322 12.9548 146.958 13.0423C146.99 13.65 147.006 14.3019 147.006 15.0003C147.006 15.6986 146.99 16.3508 146.958 16.9584C147.322 17.0459 147.655 17.2002 147.92 17.4671C148.424 17.9733 148.434 18.6243 148.434 18.9291C148.434 19.2338 148.424 19.8856 147.92 20.392C147.479 20.8351 146.856 20.9731 146.207 20.9955C146.121 21.2012 146.025 21.399 145.919 21.5882C146.029 21.5748 146.124 21.576 146.193 21.5814L153.296 22.138L153.351 22.1439L153.424 22.1537L153.452 22.1576L153.48 22.1634C153.701 22.2057 153.958 22.3047 154.177 22.516C154.396 22.7265 154.507 22.9838 154.552 23.2269H154.554L157.233 37.2123L162.135 23.8148C162.215 23.5912 162.366 23.3367 162.637 23.1527C162.922 22.9598 163.23 22.9175 163.482 22.9369H163.484L170.65 23.4994L170.679 23.5023L170.764 23.514L170.807 23.5199L170.85 23.5296C171.107 23.5882 171.481 23.7641 171.665 24.1937C171.826 24.5668 171.742 24.9108 171.686 25.0785L171.673 25.1175L171.657 25.1556L171.426 25.6888L171.427 25.6898L161.093 49.8382L159.727 68.0599L159.724 68.098L159.718 68.1361L159.709 68.1937L159.704 68.2269L159.697 68.2601C159.641 68.5103 159.496 68.8094 159.187 69.014C158.896 69.2069 158.59 69.2274 158.383 69.2113L151.061 68.6371C150.836 68.6194 150.528 68.5372 150.276 68.2767C150.023 68.0162 149.951 67.7052 149.941 67.4798L149.939 67.4398L149.94 67.3998L149.942 67.3412L149.943 67.3177L149.945 67.2933L151.414 49.3294L144.937 23.0521L144.928 23.016L144.922 22.9789C144.917 22.9447 144.912 22.9026 144.909 22.8548C144.477 23.2398 143.983 23.5404 143.429 23.7738C143.407 24.4218 143.268 25.0445 142.826 25.4857C142.319 25.9902 141.668 26.0003 141.363 26.0003C141.057 26.0003 140.407 25.9899 139.901 25.4857C139.634 25.22 139.48 24.8879 139.392 24.5248C138.784 24.5562 138.132 24.5716 137.434 24.5716C136.736 24.5716 136.085 24.5561 135.477 24.5248C135.389 24.8878 135.236 25.2201 134.969 25.4857C134.463 25.9898 133.813 26.0003 133.507 26.0003C133.202 26.0003 132.551 25.9896 132.044 25.4857C131.601 25.0445 131.461 24.4222 131.439 23.7738C130.8 23.5044 130.238 23.147 129.763 22.6722C129.288 22.197 128.93 21.6353 128.661 20.9955C128.013 20.9729 127.391 20.8344 126.95 20.392C126.445 19.8857 126.434 19.2345 126.434 18.9291C126.434 18.6236 126.445 17.9732 126.95 17.4671C127.215 17.2007 127.547 17.045 127.91 16.9574C127.878 16.3499 127.863 15.6979 127.863 15.0003C127.863 14.3023 127.878 13.6502 127.91 13.0423C127.547 12.9547 127.215 12.8008 126.95 12.5345C126.445 12.0283 126.434 11.377 126.434 11.0716C126.434 10.7661 126.445 10.1157 126.95 9.60972C127.391 9.16724 128.013 9.02775 128.661 9.00523C128.93 8.36575 129.288 7.80452 129.763 7.32945C130.238 6.85457 130.8 6.49627 131.439 6.22691C131.461 5.5787 131.601 4.956 132.044 4.515C132.551 4.01137 133.201 4.00036 133.506 4.00035C133.812 4.00039 134.463 4.0118 134.969 4.51597C135.235 4.78141 135.389 5.11316 135.477 5.47593C136.085 5.44455 136.736 5.42907 137.434 5.42906C138.132 5.42906 138.784 5.44453 139.392 5.47593C139.48 5.11303 139.634 4.78149 139.901 4.51597C140.407 4.01166 141.057 4.00037 141.363 4.00035C141.668 4.00035 142.319 4.01143 142.826 4.51597C143.268 4.95702 143.407 5.57918 143.429 6.22691C144.069 6.49638 144.631 6.85413 145.106 7.32945C145.581 7.80452 145.938 8.36589 146.207 9.00523C146.856 9.02759 147.479 9.16648 147.92 9.60972C148.424 10.1159 148.434 10.7668 148.434 11.0716Z" fill="black"/>
</svg>
