999
"DXF R12 Output" (www.mydxf.blogspot.com)
 0 
SECTION
 2 
HEADER
 9 
$ACADVER
 1 
AC1009
 9 
$EXTMIN
 10 
 0 
 20 
 0 
 9 
$EXTMAX
 10 
 8.5 
 20 
 11 
 0 
ENDSEC
 0 
SECTION
 2 
ENTITIES
0
POLYLINE
8
Layer 1
62
7
70
1
10
0.000000
20
0.000000
66
1
0
VERTEX
8
Layer 1
10
32.393955
20
16.914443
70
0
0
VERTEX
8
Layer 1
10
32.443035
20
17.341841
70
0
0
VERTEX
8
Layer 1
10
32.838984
20
18.048213
70
0
0
VERTEX
8
Layer 1
10
33.359154
20
18.391086
70
0
0
VERTEX
8
Layer 1
10
33.584843
20
18.653084
70
0
0
VERTEX
8
Layer 1
10
33.846780
20
18.878392
70
0
0
VERTEX
8
Layer 1
10
34.189415
20
19.399033
70
0
0
VERTEX
8
Layer 1
10
34.895918
20
19.794773
70
0
0
VERTEX
8
Layer 1
10
35.323418
20
19.843708
70
0
0
VERTEX
8
Layer 1
10
35.379245
20
19.843449
70
0
0
VERTEX
8
Layer 1
10
35.788224
20
19.784681
70
0
0
VERTEX
8
Layer 1
10
36.362700
20
19.485073
70
0
0
VERTEX
8
Layer 1
10
37.016915
20
19.804568
70
0
0
VERTEX
8
Layer 1
10
37.402247
20
19.843708
70
0
0
VERTEX
8
Layer 1
10
37.829449
20
19.794796
70
0
0
VERTEX
8
Layer 1
10
38.536249
20
19.399033
70
0
0
VERTEX
8
Layer 1
10
38.878355
20
18.878651
70
0
0
VERTEX
8
Layer 1
10
39.140822
20
18.653084
70
0
0
VERTEX
8
Layer 1
10
39.366246
20
18.390827
70
0
0
VERTEX
8
Layer 1
10
39.886681
20
18.048213
70
0
0
VERTEX
8
Layer 1
10
40.259776
20
17.424005
70
0
0
VERTEX
8
Layer 1
10
40.331445
20
16.970508
70
0
0
VERTEX
8
Layer 1
10
40.331445
20
16.858351
70
0
0
VERTEX
8
Layer 1
10
40.272641
20
16.449382
70
0
0
VERTEX
8
Layer 1
10
39.972935
20
15.874976
70
0
0
VERTEX
8
Layer 1
10
40.226207
20
15.442270
70
0
0
VERTEX
8
Layer 1
10
40.318745
20
15.066992
70
0
0
VERTEX
8
Layer 1
10
40.642330
20
15.041433
70
0
0
VERTEX
8
Layer 1
10
40.995846
20
14.969907
70
0
0
VERTEX
8
Layer 1
10
41.420998
20
14.740920
70
0
0
VERTEX
8
Layer 1
10
41.753645
20
14.364342
70
0
0
VERTEX
8
Layer 1
10
41.920795
20
13.948732
70
0
0
VERTEX
8
Layer 1
10
42.436203
20
14.593388
70
0
0
VERTEX
8
Layer 1
10
42.856559
20
14.786091
70
0
0
VERTEX
8
Layer 1
10
43.241593
20
14.834450
70
0
0
VERTEX
8
Layer 1
10
43.337637
20
14.830058
70
0
0
VERTEX
8
Layer 1
10
45.233374
20
14.681495
70
0
0
VERTEX
8
Layer 1
10
45.705523
20
14.560362
70
0
0
VERTEX
8
Layer 1
10
46.291177
20
14.051046
70
0
0
VERTEX
8
Layer 1
10
46.502645
20
13.327822
70
0
0
VERTEX
8
Layer 1
10
46.428760
20
12.872567
70
0
0
VERTEX
8
Layer 1
10
46.411562
20
12.821661
70
0
0
VERTEX
8
Layer 1
10
46.390396
20
12.772317
70
0
0
VERTEX
8
Layer 1
10
43.664926
20
6.403195
70
0
0
VERTEX
8
Layer 1
10
43.316206
20
1.757250
70
0
0
VERTEX
8
Layer 1
10
43.315941
20
1.755160
70
0
0
VERTEX
8
Layer 1
10
43.315677
20
1.752832
70
0
0
VERTEX
8
Layer 1
10
43.208984
20
1.312483
70
0
0
VERTEX
8
Layer 1
10
42.835988
20
0.802264
70
0
0
VERTEX
8
Layer 1
10
42.274046
20
0.513492
70
0
0
VERTEX
8
Layer 1
10
41.822635
20
0.476695
70
0
0
VERTEX
8
Layer 1
10
39.885358
20
0.628354
70
0
0
VERTEX
8
Layer 1
10
39.397699
20
0.757689
70
0
0
VERTEX
8
Layer 1
10
38.886028
20
1.176385
70
0
0
VERTEX
8
Layer 1
10
38.642479
20
1.718598
70
0
0
VERTEX
8
Layer 1
10
38.617212
20
2.121290
70
0
0
VERTEX
8
Layer 1
10
38.617476
20
2.123354
70
0
0
VERTEX
8
Layer 1
10
38.617741
20
2.125682
70
0
0
VERTEX
8
Layer 1
10
38.992390
20
6.707069
70
0
0
VERTEX
8
Layer 1
10
37.704930
20
11.929726
70
0
0
VERTEX
8
Layer 1
10
37.402247
20
11.906231
70
0
0
VERTEX
8
Layer 1
10
37.402247
20
12.170814
70
0
0
VERTEX
8
Layer 1
10
37.661009
20
12.190446
70
0
0
VERTEX
8
Layer 1
10
37.903102
20
12.231509
70
0
0
VERTEX
8
Layer 1
10
39.259884
20
6.728500
70
0
0
VERTEX
8
Layer 1
10
39.256444
20
6.685347
70
0
0
VERTEX
8
Layer 1
10
38.881795
20
2.103986
70
0
0
VERTEX
8
Layer 1
10
38.881530
20
2.100097
70
0
0
VERTEX
8
Layer 1
10
38.881001
20
2.096498
70
0
0
VERTEX
8
Layer 1
10
38.902399
20
1.768525
70
0
0
VERTEX
8
Layer 1
10
39.098224
20
1.334526
70
0
0
VERTEX
8
Layer 1
10
39.509981
20
0.997252
70
0
0
VERTEX
8
Layer 1
10
39.906260
20
0.892170
70
0
0
VERTEX
8
Layer 1
10
41.843272
20
0.740511
70
0
0
VERTEX
8
Layer 1
10
42.211076
20
0.770418
70
0
0
VERTEX
8
Layer 1
10
42.664009
20
1.003268
70
0
0
VERTEX
8
Layer 1
10
42.965137
20
1.414757
70
0
0
VERTEX
8
Layer 1
10
43.052152
20
1.773522
70
0
0
VERTEX
8
Layer 1
10
43.052417
20
1.777649
70
0
0
VERTEX
8
Layer 1
10
43.052946
20
1.782042
70
0
0
VERTEX
8
Layer 1
10
43.401137
20
6.422827
70
0
0
VERTEX
8
Layer 1
10
43.404312
20
6.466775
70
0
0
VERTEX
8
Layer 1
10
43.421774
20
6.507335
70
0
0
VERTEX
8
Layer 1
10
46.147244
20
12.876430
70
0
0
VERTEX
8
Layer 1
10
46.164177
20
12.916488
70
0
0
VERTEX
8
Layer 1
10
46.177936
20
12.956546
70
0
0
VERTEX
8
Layer 1
10
46.238128
20
13.327554
70
0
0
VERTEX
8
Layer 1
10
46.068134
20
13.909203
70
0
0
VERTEX
8
Layer 1
10
45.597374
20
14.318897
70
0
0
VERTEX
8
Layer 1
10
45.212737
20
14.417679
70
0
0
VERTEX
8
Layer 1
10
43.320439
20
14.566004
70
0
0
VERTEX
8
Layer 1
10
43.236302
20
14.569867
70
0
0
VERTEX
8
Layer 1
10
42.585163
20
14.374287
70
0
0
VERTEX
8
Layer 1
10
42.166593
20
13.850281
70
0
0
VERTEX
8
Layer 1
10
41.851739
20
13.063781
70
0
0
VERTEX
8
Layer 1
10
41.662827
20
13.889545
70
0
0
VERTEX
8
Layer 1
10
41.257750
20
14.532931
70
0
0
VERTEX
8
Layer 1
10
40.684928
20
14.770897
70
0
0
VERTEX
8
Layer 1
10
40.621693
20
14.777618
70
0
0
VERTEX
8
Layer 1
10
40.083002
20
14.820242
70
0
0
VERTEX
8
Layer 1
10
40.056279
20
15.034184
70
0
0
VERTEX
8
Layer 1
10
39.770264
20
15.704690
70
0
0
VERTEX
8
Layer 1
10
39.627390
20
15.874976
70
0
0
VERTEX
8
Layer 1
10
39.770264
20
16.044970
70
0
0
VERTEX
8
Layer 1
10
40.016294
20
16.515230
70
0
0
VERTEX
8
Layer 1
10
40.066862
20
16.858351
70
0
0
VERTEX
8
Layer 1
10
40.066862
20
16.970508
70
0
0
VERTEX
8
Layer 1
10
40.005446
20
17.350900
70
0
0
VERTEX
8
Layer 1
10
39.699356
20
17.861401
70
0
0
VERTEX
8
Layer 1
10
39.267821
20
18.145106
70
0
0
VERTEX
8
Layer 1
10
39.198236
20
18.173011
70
0
0
VERTEX
8
Layer 1
10
39.153522
20
18.233471
70
0
0
VERTEX
8
Layer 1
10
38.953761
20
18.466016
70
0
0
VERTEX
8
Layer 1
10
38.721193
20
18.665744
70
0
0
VERTEX
8
Layer 1
10
38.660868
20
18.710445
70
0
0
VERTEX
8
Layer 1
10
38.632822
20
18.780208
70
0
0
VERTEX
8
Layer 1
10
38.349718
20
19.211447
70
0
0
VERTEX
8
Layer 1
10
37.765552
20
19.538037
70
0
0
VERTEX
8
Layer 1
10
37.402247
20
19.579124
70
0
0
VERTEX
8
Layer 1
10
37.074329
20
19.546263
70
0
0
VERTEX
8
Layer 1
10
36.533091
20
19.282503
70
0
0
VERTEX
8
Layer 1
10
36.362700
20
19.139358
70
0
0
VERTEX
8
Layer 1
10
36.192573
20
19.282503
70
0
0
VERTEX
8
Layer 1
10
35.718242
20
19.529586
70
0
0
VERTEX
8
Layer 1
10
35.375276
20
19.578865
70
0
0
VERTEX
8
Layer 1
10
35.322889
20
19.579124
70
0
0
VERTEX
8
Layer 1
10
34.958988
20
19.537727
70
0
0
VERTEX
8
Layer 1
10
34.376211
20
19.211447
70
0
0
VERTEX
8
Layer 1
10
34.092578
20
18.780208
70
0
0
VERTEX
8
Layer 1
10
34.064532
20
18.710186
70
0
0
VERTEX
8
Layer 1
10
34.004207
20
18.665488
70
0
0
VERTEX
8
Layer 1
10
33.771903
20
18.466016
70
0
0
VERTEX
8
Layer 1
10
33.572143
20
18.233730
70
0
0
VERTEX
8
Layer 1
10
33.527429
20
18.173268
70
0
0
VERTEX
8
Layer 1
10
33.457579
20
18.145365
70
0
0
VERTEX
8
Layer 1
10
33.026573
20
17.861401
70
0
0
VERTEX
8
Layer 1
10
32.699780
20
17.277647
70
0
0
VERTEX
8
Layer 1
10
32.658538
20
16.914443
70
0
0
VERTEX
8
Layer 1
10
32.691313
20
16.586575
70
0
0
VERTEX
8
Layer 1
10
32.954871
20
16.044970
70
0
0
VERTEX
8
Layer 1
10
33.098010
20
15.874976
70
0
0
VERTEX
8
Layer 1
10
32.954871
20
15.704690
70
0
0
VERTEX
8
Layer 1
10
32.673884
20
15.067786
70
0
0
VERTEX
8
Layer 1
10
32.640546
20
14.843499
70
0
0
VERTEX
8
Layer 1
10
32.413534
20
14.842467
70
0
0
VERTEX
8
Layer 1
10
31.833833
20
14.801377
70
0
0
VERTEX
8
Layer 1
10
30.740609
20
14.503268
70
0
0
VERTEX
8
Layer 1
10
29.767440
20
13.923676
70
0
0
VERTEX
8
Layer 1
10
29.766910
20
13.923411
70
0
0
VERTEX
8
Layer 1
10
28.837695
20
12.932760
70
0
0
VERTEX
8
Layer 1
10
28.364356
20
13.153157
70
0
0
VERTEX
8
Layer 1
10
28.404903
20
13.468696
70
0
0
VERTEX
8
Layer 1
10
28.313291
20
13.884385
70
0
0
VERTEX
8
Layer 1
10
28.078441
20
14.222142
70
0
0
VERTEX
8
Layer 1
10
27.809261
20
14.413551
70
0
0
VERTEX
8
Layer 1
10
27.738882
20
14.445857
70
0
0
VERTEX
8
Layer 1
10
27.351003
20
14.532402
70
0
0
VERTEX
8
Layer 1
10
25.410154
20
14.625165
70
0
0
VERTEX
8
Layer 1
10
24.846665
20
14.511020
70
0
0
VERTEX
8
Layer 1
10
24.520785
20
14.290811
70
0
0
VERTEX
8
Layer 1
10
24.440696
20
14.218474
70
0
0
VERTEX
8
Layer 1
10
23.731428
20
13.246714
70
0
0
VERTEX
8
Layer 1
10
23.618531
20
13.847952
70
0
0
VERTEX
8
Layer 1
10
23.424221
20
14.301421
70
0
0
VERTEX
8
Layer 1
10
23.001427
20
14.652837
70
0
0
VERTEX
8
Layer 1
10
22.569247
20
14.760552
70
0
0
VERTEX
8
Layer 1
10
20.669621
20
14.851251
70
0
0
VERTEX
8
Layer 1
10
20.229199
20
14.785142
70
0
0
VERTEX
8
Layer 1
10
19.774828
20
14.475570
70
0
0
VERTEX
8
Layer 1
10
19.496804
20
13.828320
70
0
0
VERTEX
8
Layer 1
10
19.492174
20
13.767863
70
0
0
VERTEX
8
Layer 1
10
19.115434
20
6.319217
70
0
0
VERTEX
8
Layer 1
10
18.598412
20
6.254632
70
0
0
VERTEX
8
Layer 1
10
16.197798
20
14.041733
70
0
0
VERTEX
8
Layer 1
10
16.184092
20
14.076631
70
0
0
VERTEX
8
Layer 1
10
16.154909
20
14.145106
70
0
0
VERTEX
8
Layer 1
10
16.123371
20
14.207626
70
0
0
VERTEX
8
Layer 1
10
15.713584
20
14.641701
70
0
0
VERTEX
8
Layer 1
10
15.051095
20
14.804499
70
0
0
VERTEX
8
Layer 1
10
15.050830
20
14.804737
70
0
0
VERTEX
8
Layer 1
10
14.967884
20
14.796985
70
0
0
VERTEX
8
Layer 1
10
12.537292
20
14.485650
70
0
0
VERTEX
8
Layer 1
10
12.205048
20
14.391641
70
0
0
VERTEX
8
Layer 1
10
11.859827
20
14.148466
70
0
0
VERTEX
8
Layer 1
10
11.611251
20
13.751327
70
0
0
VERTEX
8
Layer 1
10
11.426520
20
13.247984
70
0
0
VERTEX
8
Layer 1
10
11.139447
20
13.700685
70
0
0
VERTEX
8
Layer 1
10
11.028851
20
13.847952
70
0
0
VERTEX
8
Layer 1
10
10.633743
20
14.131056
70
0
0
VERTEX
8
Layer 1
10
10.307730
20
14.216913
70
0
0
VERTEX
8
Layer 1
10
8.245835
20
14.455938
70
0
0
VERTEX
8
Layer 1
10
7.667777
20
14.381196
70
0
0
VERTEX
8
Layer 1
10
7.225471
20
14.081526
70
0
0
VERTEX
8
Layer 1
10
7.211792
20
14.067054
70
0
0
VERTEX
8
Layer 1
10
7.197054
20
14.050279
70
0
0
VERTEX
8
Layer 1
10
7.196790
20
14.049750
70
0
0
VERTEX
8
Layer 1
10
6.420609
20
13.163000
70
0
0
VERTEX
8
Layer 1
10
5.864323
20
14.205298
70
0
0
VERTEX
8
Layer 1
10
5.852946
20
14.226227
70
0
0
VERTEX
8
Layer 1
10
5.843924
20
14.241731
70
0
0
VERTEX
8
Layer 1
10
5.508578
20
14.616612
70
0
0
VERTEX
8
Layer 1
10
4.944236
20
14.838339
70
0
0
VERTEX
8
Layer 1
10
2.893718
20
15.076041
70
0
0
VERTEX
8
Layer 1
10
2.811803
20
15.083026
70
0
0
VERTEX
8
Layer 1
10
2.464223
20
15.046632
70
0
0
VERTEX
8
Layer 1
10
2.060684
20
14.844028
70
0
0
VERTEX
8
Layer 1
10
1.745841
20
14.446330
70
0
0
VERTEX
8
Layer 1
10
1.644947
20
14.091871
70
0
0
VERTEX
8
Layer 1
10
0.274748
20
2.554862
70
0
0
VERTEX
8
Layer 1
10
0.274748
20
2.550205
70
0
0
VERTEX
8
Layer 1
10
0.272682
20
2.537029
70
0
0
VERTEX
8
Layer 1
10
0.272939
20
2.536765
70
0
0
VERTEX
8
Layer 1
10
0.276932
20
2.225023
70
0
0
VERTEX
8
Layer 1
10
0.436237
20
1.789794
70
0
0
VERTEX
8
Layer 1
10
0.479128
20
1.726241
70
0
0
VERTEX
8
Layer 1
10
0.861834
20
1.395783
70
0
0
VERTEX
8
Layer 1
10
1.258407
20
1.273804
70
0
0
VERTEX
8
Layer 1
10
3.163725
20
1.053142
70
0
0
VERTEX
8
Layer 1
10
3.607850
20
1.089201
70
0
0
VERTEX
8
Layer 1
10
4.082278
20
1.367334
70
0
0
VERTEX
8
Layer 1
10
4.336251
20
1.752722
70
0
0
VERTEX
8
Layer 1
10
4.411948
20
2.054906
70
0
0
VERTEX
8
Layer 1
10
5.023029
20
7.243458
70
0
0
VERTEX
8
Layer 1
10
5.604662
20
6.136549
70
0
0
VERTEX
8
Layer 1
10
6.451883
20
7.104711
70
0
0
VERTEX
8
Layer 1
10
5.857868
20
1.890044
70
0
0
VERTEX
8
Layer 1
10
5.857868
20
1.889542
70
0
0
VERTEX
8
Layer 1
10
5.861860
20
1.577757
70
0
0
VERTEX
8
Layer 1
10
6.021168
20
1.142544
70
0
0
VERTEX
8
Layer 1
10
6.419263
20
0.763447
70
0
0
VERTEX
8
Layer 1
10
6.843333
20
0.626819
70
0
0
VERTEX
8
Layer 1
10
8.748913
20
0.405892
70
0
0
VERTEX
8
Layer 1
10
9.192887
20
0.441972
70
0
0
VERTEX
8
Layer 1
10
9.667201
20
0.720085
70
0
0
VERTEX
8
Layer 1
10
9.921902
20
1.107401
70
0
0
VERTEX
8
Layer 1
10
9.997136
20
1.409985
70
0
0
VERTEX
8
Layer 1
10
9.997666
20
1.413319
70
0
0
VERTEX
8
Layer 1
10
9.997666
20
1.414112
70
0
0
VERTEX
8
Layer 1
10
9.997930
20
1.416176
70
0
0
VERTEX
8
Layer 1
10
10.727333
20
7.872874
70
0
0
VERTEX
8
Layer 1
10
11.254435
20
7.829456
70
0
0
VERTEX
8
Layer 1
10
10.930426
20
1.513331
70
0
0
VERTEX
8
Layer 1
10
10.942571
20
1.419536
70
0
0
VERTEX
8
Layer 1
10
11.021469
20
1.117958
70
0
0
VERTEX
8
Layer 1
10
11.280787
20
0.733790
70
0
0
VERTEX
8
Layer 1
10
11.758502
20
0.461147
70
0
0
VERTEX
8
Layer 1
10
12.202938
20
0.430181
70
0
0
VERTEX
8
Layer 1
10
14.072614
20
0.669708
70
0
0
VERTEX
8
Layer 1
10
14.160456
20
0.684445
70
0
0
VERTEX
8
Layer 1
10
14.500614
20
0.812603
70
0
0
VERTEX
8
Layer 1
10
14.830433
20
1.100185
70
0
0
VERTEX
8
Layer 1
10
15.020618
20
1.473683
70
0
0
VERTEX
8
Layer 1
10
15.067631
20
1.791858
70
0
0
VERTEX
8
Layer 1
10
15.076416
20
2.418178
70
0
0
VERTEX
8
Layer 1
10
15.329886
20
2.164708
70
0
0
VERTEX
8
Layer 1
10
15.547188
20
2.194685
70
0
0
VERTEX
8
Layer 1
10
15.552877
20
2.174524
70
0
0
VERTEX
8
Layer 1
10
15.554940
20
2.175291
70
0
0
VERTEX
8
Layer 1
10
15.640454
20
1.865253
70
0
0
VERTEX
8
Layer 1
10
15.781334
20
1.545435
70
0
0
VERTEX
8
Layer 1
10
16.086699
20
1.225994
70
0
0
VERTEX
8
Layer 1
10
16.527498
20
1.041024
70
0
0
VERTEX
8
Layer 1
10
16.893863
20
1.030917
70
0
0
VERTEX
8
Layer 1
10
18.755786
20
1.269147
70
0
0
VERTEX
8
Layer 1
10
18.991688
20
1.325742
70
0
0
VERTEX
8
Layer 1
10
19.143083
20
1.378711
70
0
0
VERTEX
8
Layer 1
10
19.260134
20
1.268883
70
0
0
VERTEX
8
Layer 1
10
19.623248
20
1.043124
70
0
0
VERTEX
8
Layer 1
10
19.974297
20
0.969428
70
0
0
VERTEX
8
Layer 1
10
21.890460
20
0.877961
70
0
0
VERTEX
8
Layer 1
10
22.330881
20
0.944163
70
0
0
VERTEX
8
Layer 1
10
22.785253
20
1.253907
70
0
0
VERTEX
8
Layer 1
10
23.013360
20
1.657387
70
0
0
VERTEX
8
Layer 1
10
23.068172
20
1.964207
70
0
0
VERTEX
8
Layer 1
10
23.077485
20
2.160819
70
0
0
VERTEX
8
Layer 1
10
23.586992
20
2.247390
70
0
0
VERTEX
8
Layer 1
10
23.885442
20
1.507907
70
0
0
VERTEX
8
Layer 1
10
23.887770
20
1.502219
70
0
0
VERTEX
8
Layer 1
10
23.889569
20
1.496795
70
0
0
VERTEX
8
Layer 1
10
24.286444
20
0.958580
70
0
0
VERTEX
8
Layer 1
10
24.929566
20
0.733023
70
0
0
VERTEX
8
Layer 1
10
26.994345
20
0.634571
70
0
0
VERTEX
8
Layer 1
10
27.254695
20
0.646980
70
0
0
VERTEX
8
Layer 1
10
27.749200
20
0.847481
70
0
0
VERTEX
8
Layer 1
10
28.059556
20
1.195772
70
0
0
VERTEX
8
Layer 1
10
28.196875
20
1.674039
70
0
0
VERTEX
8
Layer 1
10
28.099508
20
2.180980
70
0
0
VERTEX
8
Layer 1
10
28.097656
20
2.184869
70
0
0
VERTEX
8
Layer 1
10
28.096069
20
2.188467
70
0
0
VERTEX
8
Layer 1
10
25.382770
20
8.751634
70
0
0
VERTEX
8
Layer 1
10
25.465452
20
8.870220
70
0
0
VERTEX
8
Layer 1
10
27.983886
20
12.493526
70
0
0
VERTEX
8
Layer 1
10
28.441614
20
12.232541
70
0
0
VERTEX
8
Layer 1
10
28.417273
20
12.178804
70
0
0
VERTEX
8
Layer 1
10
28.414891
20
12.174147
70
0
0
VERTEX
8
Layer 1
10
28.099409
20
11.042761
70
0
0
VERTEX
8
Layer 1
10
28.105594
20
9.858014
70
0
0
VERTEX
8
Layer 1
10
28.409500
20
8.664325
70
0
0
VERTEX
8
Layer 1
10
28.989830
20
7.601306
70
0
0
VERTEX
8
Layer 1
10
28.990624
20
7.600036
70
0
0
VERTEX
8
Layer 1
10
28.992211
20
7.597708
70
0
0
VERTEX
8
Layer 1
10
28.996974
20
7.591490
70
0
0
VERTEX
8
Layer 1
10
28.997238
20
7.590988
70
0
0
VERTEX
8
Layer 1
10
29.555773
20
6.978372
70
0
0
VERTEX
8
Layer 1
10
29.888619
20
6.676060
70
0
0
VERTEX
8
Layer 1
10
29.462905
20
6.531888
70
0
0
VERTEX
8
Layer 1
10
28.895374
20
6.104772
70
0
0
VERTEX
8
Layer 1
10
28.710662
20
5.642929
70
0
0
VERTEX
8
Layer 1
10
28.706726
20
5.291894
70
0
0
VERTEX
8
Layer 1
10
28.810972
20
4.521666
70
0
0
VERTEX
8
Layer 1
10
29.084121
20
3.461671
70
0
0
VERTEX
8
Layer 1
10
29.603927
20
2.508613
70
0
0
VERTEX
8
Layer 1
10
29.692033
20
2.390265
70
0
0
VERTEX
8
Layer 1
10
29.694150
20
2.387698
70
0
0
VERTEX
8
Layer 1
10
29.696002
20
2.385106
70
0
0
VERTEX
8
Layer 1
10
29.698913
20
2.380978
70
0
0
VERTEX
8
Layer 1
10
29.699971
20
2.379682
70
0
0
VERTEX
8
Layer 1
10
30.498019
20
1.585112
70
0
0
VERTEX
8
Layer 1
10
31.463152
20
1.009221
70
0
0
VERTEX
8
Layer 1
10
31.463681
20
1.008956
70
0
0
VERTEX
8
Layer 1
10
31.466062
20
1.007925
70
0
0
VERTEX
8
Layer 1
10
31.468179
20
1.007157
70
0
0
VERTEX
8
Layer 1
10
32.582603
20
0.690974
70
0
0
VERTEX
8
Layer 1
10
33.743064
20
0.691933
70
0
0
VERTEX
8
Layer 1
10
34.862514
20
0.992344
70
0
0
VERTEX
8
Layer 1
10
35.853378
20
1.577651
70
0
0
VERTEX
8
Layer 1
10
36.641504
20
2.382069
70
0
0
VERTEX
8
Layer 1
10
37.204603
20
3.361787
70
0
0
VERTEX
8
Layer 1
10
37.208572
20
3.371339
70
0
0
VERTEX
8
Layer 1
10
37.502854
20
4.506750
70
0
0
VERTEX
8
Layer 1
10
37.487972
20
5.696018
70
0
0
VERTEX
8
Layer 1
10
37.160748
20
6.878876
70
0
0
VERTEX
8
Layer 1
10
36.494992
20
7.881394
70
0
0
VERTEX
8
Layer 1
10
36.493933
20
7.882426
70
0
0
VERTEX
8
Layer 1
10
36.295496
20
8.081657
70
0
0
VERTEX
8
Layer 1
10
36.025357
20
8.336159
70
0
0
VERTEX
8
Layer 1
10
36.354233
20
8.508509
70
0
0
VERTEX
8
Layer 1
10
36.719622
20
8.816748
70
0
0
VERTEX
8
Layer 1
10
36.926659
20
9.282172
70
0
0
VERTEX
8
Layer 1
10
36.936051
20
9.651057
70
0
0
VERTEX
8
Layer 1
10
36.749785
20
11.027709
70
0
0
VERTEX
8
Layer 1
10
36.534150
20
11.928429
70
0
0
VERTEX
8
Layer 1
10
36.342592
20
12.472068
70
0
0
VERTEX
8
Layer 1
10
36.879695
20
12.263047
70
0
0
VERTEX
8
Layer 1
10
37.402247
20
12.170814
70
0
0
VERTEX
8
Layer 1
10
37.402247
20
11.906231
70
0
0
VERTEX
8
Layer 1
10
36.783652
20
12.016535
70
0
0
VERTEX
8
Layer 1
10
37.011722
20
11.063375
70
0
0
VERTEX
8
Layer 1
10
37.197989
20
9.686723
70
0
0
VERTEX
8
Layer 1
10
37.186711
20
9.233853
70
0
0
VERTEX
8
Layer 1
10
36.929966
20
8.656543
70
0
0
VERTEX
8
Layer 1
10
36.477000
20
8.274141
70
0
0
VERTEX
8
Layer 1
10
36.687079
20
8.063295
70
0
0
VERTEX
8
Layer 1
10
37.402147
20
6.986634
70
0
0
VERTEX
8
Layer 1
10
37.749909
20
5.731657
70
0
0
VERTEX
8
Layer 1
10
37.765387
20
4.475096
70
0
0
VERTEX
8
Layer 1
10
37.452253
20
3.268760
70
0
0
VERTEX
8
Layer 1
10
37.448284
20
3.258944
70
0
0
VERTEX
8
Layer 1
10
36.852443
20
2.222602
70
0
0
VERTEX
8
Layer 1
10
36.017684
20
1.370430
70
0
0
VERTEX
8
Layer 1
10
34.964445
20
0.748359
70
0
0
VERTEX
8
Layer 1
10
33.778253
20
0.429917
70
0
0
VERTEX
8
Layer 1
10
32.546256
20
0.428994
70
0
0
VERTEX
8
Layer 1
10
31.362081
20
0.764799
70
0
0
VERTEX
8
Layer 1
10
31.358906
20
0.766096
70
0
0
VERTEX
8
Layer 1
10
31.355996
20
0.767366
70
0
0
VERTEX
8
Layer 1
10
30.335532
20
1.376386
70
0
0
VERTEX
8
Layer 1
10
29.492273
20
2.215852
70
0
0
VERTEX
8
Layer 1
10
29.487246
20
2.222334
70
0
0
VERTEX
8
Layer 1
10
29.482219
20
2.229054
70
0
0
VERTEX
8
Layer 1
10
28.866468
20
3.293932
70
0
0
VERTEX
8
Layer 1
10
28.548770
20
4.486265
70
0
0
VERTEX
8
Layer 1
10
28.444525
20
5.256493
70
0
0
VERTEX
8
Layer 1
10
28.449221
20
5.684495
70
0
0
VERTEX
8
Layer 1
10
28.677358
20
6.254896
70
0
0
VERTEX
8
Layer 1
10
29.016751
20
6.599522
70
0
0
VERTEX
8
Layer 1
10
29.377973
20
6.782501
70
0
0
VERTEX
8
Layer 1
10
28.785043
20
7.432846
70
0
0
VERTEX
8
Layer 1
10
28.780545
20
7.439064
70
0
0
VERTEX
8
Layer 1
10
28.775782
20
7.445520
70
0
0
VERTEX
8
Layer 1
10
28.162843
20
8.568457
70
0
0
VERTEX
8
Layer 1
10
27.843392
20
9.822640
70
0
0
VERTEX
8
Layer 1
10
27.837108
20
11.077269
70
0
0
VERTEX
8
Layer 1
10
28.172533
20
12.280086
70
0
0
VERTEX
8
Layer 1
10
28.173856
20
12.282944
70
0
0
VERTEX
8
Layer 1
10
28.175179
20
12.286040
70
0
0
VERTEX
8
Layer 1
10
28.200844
20
12.342634
70
0
0
VERTEX
8
Layer 1
10
25.682490
20
8.719328
70
0
0
VERTEX
8
Layer 1
10
28.340543
20
2.289750
70
0
0
VERTEX
8
Layer 1
10
28.460929
20
1.661630
70
0
0
VERTEX
8
Layer 1
10
28.289942
20
1.066093
70
0
0
VERTEX
8
Layer 1
10
27.904246
20
0.633275
70
0
0
VERTEX
8
Layer 1
10
27.294118
20
0.385493
70
0
0
VERTEX
8
Layer 1
10
26.981645
20
0.370491
70
0
0
VERTEX
8
Layer 1
10
24.916892
20
0.468943
70
0
0
VERTEX
8
Layer 1
10
24.561352
20
0.529707
70
0
0
VERTEX
8
Layer 1
10
24.129335
20
0.745670
70
0
0
VERTEX
8
Layer 1
10
23.639962
20
1.408927
70
0
0
VERTEX
8
Layer 1
10
23.341539
20
2.148436
70
0
0
VERTEX
8
Layer 1
10
23.332225
20
1.951798
70
0
0
VERTEX
8
Layer 1
10
23.265441
20
1.577496
70
0
0
VERTEX
8
Layer 1
10
22.983690
20
1.078992
70
0
0
VERTEX
8
Layer 1
10
22.419966
20
0.695171
70
0
0
VERTEX
8
Layer 1
10
21.877813
20
0.613908
70
0
0
VERTEX
8
Layer 1
10
19.961650
20
0.705374
70
0
0
VERTEX
8
Layer 1
10
19.529463
20
0.795802
70
0
0
VERTEX
8
Layer 1
10
19.078763
20
1.076134
70
0
0
VERTEX
8
Layer 1
10
18.789362
20
1.006893
70
0
0
VERTEX
8
Layer 1
10
16.927465
20
0.768662
70
0
0
VERTEX
8
Layer 1
10
16.479479
20
0.780932
70
0
0
VERTEX
8
Layer 1
10
15.935014
20
1.009221
70
0
0
VERTEX
8
Layer 1
10
15.557669
20
1.404191
70
0
0
VERTEX
8
Layer 1
10
15.385449
20
1.794953
70
0
0
VERTEX
8
Layer 1
10
15.384919
20
1.794715
70
0
0
VERTEX
8
Layer 1
10
15.354942
20
1.901157
70
0
0
VERTEX
8
Layer 1
10
15.334278
20
1.898326
70
0
0
VERTEX
8
Layer 1
10
15.332479
20
1.787995
70
0
0
VERTEX
8
Layer 1
10
15.332214
20
1.788233
70
0
0
VERTEX
8
Layer 1
10
15.274648
20
1.399818
70
0
0
VERTEX
8
Layer 1
10
15.039718
20
0.938419
70
0
0
VERTEX
8
Layer 1
10
14.569938
20
0.549726
70
0
0
VERTEX
8
Layer 1
10
14.106190
20
0.407453
70
0
0
VERTEX
8
Layer 1
10
12.236540
20
0.167926
70
0
0
VERTEX
8
Layer 1
10
11.689462
20
0.205828
70
0
0
VERTEX
8
Layer 1
10
11.096823
20
0.543608
70
0
0
VERTEX
8
Layer 1
10
10.776390
20
1.018141
70
0
0
VERTEX
8
Layer 1
10
10.680052
20
1.385934
70
0
0
VERTEX
8
Layer 1
10
10.665050
20
1.503250
70
0
0
VERTEX
8
Layer 1
10
10.671003
20
1.621598
70
0
0
VERTEX
8
Layer 1
10
10.990116
20
7.843162
70
0
0
VERTEX
8
Layer 1
10
10.260423
20
1.383368
70
0
0
VERTEX
8
Layer 1
10
10.260185
20
1.381304
70
0
0
VERTEX
8
Layer 1
10
10.259920
20
1.379478
70
0
0
VERTEX
8
Layer 1
10
10.168007
20
1.010557
70
0
0
VERTEX
8
Layer 1
10
9.853230
20
0.532257
70
0
0
VERTEX
8
Layer 1
10
9.264833
20
0.187489
70
0
0
VERTEX
8
Layer 1
10
8.718407
20
0.143135
70
0
0
VERTEX
8
Layer 1
10
6.812854
20
0.364035
70
0
0
VERTEX
8
Layer 1
10
6.290927
20
0.532135
70
0
0
VERTEX
8
Layer 1
10
5.796881
20
1.002236
70
0
0
VERTEX
8
Layer 1
10
5.599919
20
1.539839
70
0
0
VERTEX
8
Layer 1
10
5.594846
20
1.920022
70
0
0
VERTEX
8
Layer 1
10
6.093003
20
6.292864
70
0
0
VERTEX
8
Layer 1
10
5.549867
20
5.671994
70
0
0
VERTEX
8
Layer 1
10
5.185827
20
6.364698
70
0
0
VERTEX
8
Layer 1
10
4.674732
20
2.024135
70
0
0
VERTEX
8
Layer 1
10
4.582217
20
1.655548
70
0
0
VERTEX
8
Layer 1
10
4.268306
20
1.179507
70
0
0
VERTEX
8
Layer 1
10
3.679767
20
0.834699
70
0
0
VERTEX
8
Layer 1
10
3.133218
20
0.790384
70
0
0
VERTEX
8
Layer 1
10
1.227919
20
1.011020
70
0
0
VERTEX
8
Layer 1
10
0.706013
20
1.179232
70
0
0
VERTEX
8
Layer 1
10
0.211961
20
1.649485
70
0
0
VERTEX
8
Layer 1
10
0.014996
20
2.187108
70
0
0
VERTEX
8
Layer 1
10
0.009907
20
2.567271
70
0
0
VERTEX
8
Layer 1
10
0.010165
20
2.569070
70
0
0
VERTEX
8
Layer 1
10
0.010165
20
2.570869
70
0
0
VERTEX
8
Layer 1
10
1.382174
20
14.123145
70
0
0
VERTEX
8
Layer 1
10
1.506023
20
14.558245
70
0
0
VERTEX
8
Layer 1
10
1.896354
20
15.051487
70
0
0
VERTEX
8
Layer 1
10
2.400273
20
15.303433
70
0
0
VERTEX
8
Layer 1
10
2.828604
20
15.347080
70
0
0
VERTEX
8
Layer 1
10
2.921367
20
15.339327
70
0
0
VERTEX
8
Layer 1
10
4.974716
20
15.101361
70
0
0
VERTEX
8
Layer 1
10
5.666190
20
14.829182
70
0
0
VERTEX
8
Layer 1
10
6.072312
20
14.375055
70
0
0
VERTEX
8
Layer 1
10
6.084986
20
14.353359
70
0
0
VERTEX
8
Layer 1
10
6.096865
20
14.331398
70
0
0
VERTEX
8
Layer 1
10
6.473579
20
13.625491
70
0
0
VERTEX
8
Layer 1
10
6.997585
20
14.224163
70
0
0
VERTEX
8
Layer 1
10
7.015154
20
14.244324
70
0
0
VERTEX
8
Layer 1
10
7.033516
20
14.263692
70
0
0
VERTEX
8
Layer 1
10
7.570470
20
14.627374
70
0
0
VERTEX
8
Layer 1
10
8.276315
20
14.718960
70
0
0
VERTEX
8
Layer 1
10
10.337946
20
14.479962
70
0
0
VERTEX
8
Layer 1
10
10.736838
20
14.374727
70
0
0
VERTEX
8
Layer 1
10
11.226019
20
14.024165
70
0
0
VERTEX
8
Layer 1
10
11.362702
20
13.842528
70
0
0
VERTEX
8
Layer 1
10
11.669645
20
14.332430
70
0
0
VERTEX
8
Layer 1
10
12.096057
20
14.632782
70
0
0
VERTEX
8
Layer 1
10
12.503716
20
14.748170
70
0
0
VERTEX
8
Layer 1
10
14.939467
20
15.060034
70
0
0
VERTEX
8
Layer 1
10
15.035088
20
15.068818
70
0
0
VERTEX
8
Layer 1
10
15.422060
20
15.039512
70
0
0
VERTEX
8
Layer 1
10
15.851300
20
14.867788
70
0
0
VERTEX
8
Layer 1
10
16.394674
20
14.256707
70
0
0
VERTEX
8
Layer 1
10
16.430075
20
14.173786
70
0
0
VERTEX
8
Layer 1
10
16.447908
20
14.128569
70
0
0
VERTEX
8
Layer 1
10
18.851115
20
6.332657
70
0
0
VERTEX
8
Layer 1
10
19.227829
20
13.781304
70
0
0
VERTEX
8
Layer 1
10
19.295489
20
14.155312
70
0
0
VERTEX
8
Layer 1
10
19.576152
20
14.650486
70
0
0
VERTEX
8
Layer 1
10
20.139843
20
15.034276
70
0
0
VERTEX
8
Layer 1
10
20.682003
20
15.115569
70
0
0
VERTEX
8
Layer 1
10
22.581630
20
15.024897
70
0
0
VERTEX
8
Layer 1
10
23.113680
20
14.892417
70
0
0
VERTEX
8
Layer 1
10
23.638427
20
14.456705
70
0
0
VERTEX
8
Layer 1
10
23.878457
20
13.896794
70
0
0
VERTEX
8
Layer 1
10
24.243290
20
14.396248
70
0
0
VERTEX
8
Layer 1
10
24.342774
20
14.486682
70
0
0
VERTEX
8
Layer 1
10
24.732716
20
14.749906
70
0
0
VERTEX
8
Layer 1
10
25.422537
20
14.889483
70
0
0
VERTEX
8
Layer 1
10
27.363438
20
14.796747
70
0
0
VERTEX
8
Layer 1
10
27.841011
20
14.690014
70
0
0
VERTEX
8
Layer 1
10
28.214139
20
14.456622
70
0
0
VERTEX
8
Layer 1
10
28.555120
20
13.991356
70
0
0
VERTEX
8
Layer 1
10
28.669387
20
13.473022
70
0
0
VERTEX
8
Layer 1
10
28.619149
20
13.082620
70
0
0
VERTEX
8
Layer 1
10
29.603134
20
14.131400
70
0
0
VERTEX
8
Layer 1
10
30.637025
20
14.746929
70
0
0
VERTEX
8
Layer 1
10
31.798114
20
15.063632
70
0
0
VERTEX
8
Layer 1
10
32.411947
20
15.107050
70
0
0
VERTEX
8
Layer 1
10
32.752200
20
15.874976
70
0
0
VERTEX
8
Layer 1
10
32.432981
20
16.529448
70
0
0
VERTEX
8
Layer 1
10
32.393955
20
16.914443
70
0
0
VERTEX
8
Layer 1
10
32.393955
20
16.914443
70
0
0
SEQEND
8
Layer 1
0
POLYLINE
8
Layer 1
62
7
70
1
10
0.000000
20
0.000000
66
1
0
VERTEX
8
Layer 1
10
2.799659
20
14.287980
70
0
0
VERTEX
8
Layer 1
10
4.853008
20
14.050014
70
0
0
VERTEX
8
Layer 1
10
4.861025
20
14.048983
70
0
0
VERTEX
8
Layer 1
10
4.868777
20
14.047686
70
0
0
VERTEX
8
Layer 1
10
4.884811
20
14.044855
70
0
0
VERTEX
8
Layer 1
10
4.893833
20
14.043294
70
0
0
VERTEX
8
Layer 1
10
4.902617
20
14.040966
70
0
0
VERTEX
8
Layer 1
10
5.138017
20
13.873538
70
0
0
VERTEX
8
Layer 1
10
5.158416
20
13.841761
70
0
0
VERTEX
8
Layer 1
10
5.161009
20
13.837369
70
0
0
VERTEX
8
Layer 1
10
5.163337
20
13.832977
70
0
0
VERTEX
8
Layer 1
10
6.261727
20
11.775209
70
0
0
VERTEX
8
Layer 1
10
7.794430
20
13.527569
70
0
0
VERTEX
8
Layer 1
10
7.797790
20
13.531432
70
0
0
VERTEX
8
Layer 1
10
7.801680
20
13.535321
70
0
0
VERTEX
8
Layer 1
10
8.154633
20
13.667613
70
0
0
VERTEX
8
Layer 1
10
10.222958
20
13.427821
70
0
0
VERTEX
8
Layer 1
10
10.229440
20
13.426789
70
0
0
VERTEX
8
Layer 1
10
10.246479
20
13.423958
70
0
0
VERTEX
8
Layer 1
10
10.256295
20
13.422132
70
0
0
VERTEX
8
Layer 1
10
10.266111
20
13.419831
70
0
0
VERTEX
8
Layer 1
10
10.461188
20
13.288042
70
0
0
VERTEX
8
Layer 1
10
10.514952
20
13.061188
70
0
0
VERTEX
8
Layer 1
10
9.208811
20
1.501954
70
0
0
VERTEX
8
Layer 1
10
9.208044
20
1.495498
70
0
0
VERTEX
8
Layer 1
10
9.207012
20
1.489307
70
0
0
VERTEX
8
Layer 1
10
9.203917
20
1.470178
70
0
0
VERTEX
8
Layer 1
10
9.202620
20
1.461129
70
0
0
VERTEX
8
Layer 1
10
9.200292
20
1.452345
70
0
0
VERTEX
8
Layer 1
10
9.078345
20
1.257532
70
0
0
VERTEX
8
Layer 1
10
8.840379
20
1.194217
70
0
0
VERTEX
8
Layer 1
10
6.935064
20
1.414880
70
0
0
VERTEX
8
Layer 1
10
6.694241
20
1.563708
70
0
0
VERTEX
8
Layer 1
10
6.646193
20
1.798049
70
0
0
VERTEX
8
Layer 1
10
7.528048
20
9.540462
70
0
0
VERTEX
8
Layer 1
10
5.769497
20
7.530001
70
0
0
VERTEX
8
Layer 1
10
4.534423
20
9.881033
70
0
0
VERTEX
8
Layer 1
10
3.623649
20
2.148674
70
0
0
VERTEX
8
Layer 1
10
3.623888
20
2.148436
70
0
0
VERTEX
8
Layer 1
10
3.523372
20
1.931134
70
0
0
VERTEX
8
Layer 1
10
3.255429
20
1.841467
70
0
0
VERTEX
8
Layer 1
10
1.349876
20
2.062129
70
0
0
VERTEX
8
Layer 1
10
1.132061
20
2.178651
70
0
0
VERTEX
8
Layer 1
10
1.058163
20
2.395451
70
0
0
VERTEX
8
Layer 1
10
1.058163
20
2.404235
70
0
0
VERTEX
8
Layer 1
10
1.058938
20
2.413019
70
0
0
VERTEX
8
Layer 1
10
1.060229
20
2.432387
70
0
0
VERTEX
8
Layer 1
10
1.060488
20
2.439107
70
0
0
VERTEX
8
Layer 1
10
1.061520
20
2.445827
70
0
0
VERTEX
8
Layer 1
10
2.433013
20
13.997548
70
0
0
VERTEX
8
Layer 1
10
2.553676
20
14.221835
70
0
0
VERTEX
8
Layer 1
10
2.799659
20
14.287980
70
0
0
VERTEX
8
Layer 1
10
2.799659
20
14.287980
70
0
0
SEQEND
8
Layer 1
0
POLYLINE
8
Layer 1
62
7
70
1
10
0.000000
20
0.000000
66
1
0
VERTEX
8
Layer 1
10
15.126289
20
14.013052
70
0
0
VERTEX
8
Layer 1
10
15.300438
20
13.963972
70
0
0
VERTEX
8
Layer 1
10
15.444345
20
13.789056
70
0
0
VERTEX
8
Layer 1
10
15.447969
20
13.779743
70
0
0
VERTEX
8
Layer 1
10
15.450801
20
13.770430
70
0
0
VERTEX
8
Layer 1
10
18.929406
20
2.487420
70
0
0
VERTEX
8
Layer 1
10
18.932263
20
2.478371
70
0
0
VERTEX
8
Layer 1
10
18.934327
20
2.469084
70
0
0
VERTEX
8
Layer 1
10
18.897629
20
2.208364
70
0
0
VERTEX
8
Layer 1
10
18.655006
20
2.056705
70
0
0
VERTEX
8
Layer 1
10
16.793374
20
1.818210
70
0
0
VERTEX
8
Layer 1
10
16.783558
20
1.816914
70
0
0
VERTEX
8
Layer 1
10
16.754348
20
1.815379
70
0
0
VERTEX
8
Layer 1
10
16.745828
20
1.814850
70
0
0
VERTEX
8
Layer 1
10
16.737044
20
1.815114
70
0
0
VERTEX
8
Layer 1
10
16.512757
20
1.899093
70
0
0
VERTEX
8
Layer 1
10
16.404490
20
2.080227
70
0
0
VERTEX
8
Layer 1
10
16.403987
20
2.079962
70
0
0
VERTEX
8
Layer 1
10
16.127524
20
3.066962
70
0
0
VERTEX
8
Layer 1
10
14.293012
20
2.832119
70
0
0
VERTEX
8
Layer 1
10
14.274412
20
1.807098
70
0
0
VERTEX
8
Layer 1
10
14.273882
20
1.807362
70
0
0
VERTEX
8
Layer 1
10
14.202313
20
1.585403
70
0
0
VERTEX
8
Layer 1
10
13.971834
20
1.457001
70
0
0
VERTEX
8
Layer 1
10
12.101921
20
1.217739
70
0
0
VERTEX
8
Layer 1
10
11.832443
20
1.304549
70
0
0
VERTEX
8
Layer 1
10
11.730102
20
1.520290
70
0
0
VERTEX
8
Layer 1
10
11.727006
20
1.543811
70
0
0
VERTEX
8
Layer 1
10
11.728303
20
1.567332
70
0
0
VERTEX
8
Layer 1
10
12.333960
20
13.373052
70
0
0
VERTEX
8
Layer 1
10
12.334198
20
13.381836
70
0
0
VERTEX
8
Layer 1
10
12.335230
20
13.390621
70
0
0
VERTEX
8
Layer 1
10
12.430321
20
13.596281
70
0
0
VERTEX
8
Layer 1
10
12.638072
20
13.698093
70
0
0
VERTEX
8
Layer 1
10
15.073823
20
14.009957
70
0
0
VERTEX
8
Layer 1
10
15.126289
20
14.013052
70
0
0
VERTEX
8
Layer 1
10
15.126289
20
14.013052
70
0
0
SEQEND
8
Layer 1
0
POLYLINE
8
Layer 1
62
7
70
1
10
0.000000
20
0.000000
66
1
0
VERTEX
8
Layer 1
10
20.631362
20
14.058269
70
0
0
VERTEX
8
Layer 1
10
20.631627
20
14.058031
70
0
0
VERTEX
8
Layer 1
10
22.531253
20
13.967597
70
0
0
VERTEX
8
Layer 1
10
22.781628
20
13.835305
70
0
0
VERTEX
8
Layer 1
10
22.844943
20
13.605065
70
0
0
VERTEX
8
Layer 1
10
22.695850
20
10.480737
70
0
0
VERTEX
8
Layer 1
10
25.018968
20
13.663485
70
0
0
VERTEX
8
Layer 1
10
25.034976
20
13.685181
70
0
0
VERTEX
8
Layer 1
10
25.054872
20
13.703252
70
0
0
VERTEX
8
Layer 1
10
25.372425
20
13.831945
70
0
0
VERTEX
8
Layer 1
10
27.313168
20
13.739447
70
0
0
VERTEX
8
Layer 1
10
27.321105
20
13.739182
70
0
0
VERTEX
8
Layer 1
10
27.328778
20
13.738415
70
0
0
VERTEX
8
Layer 1
10
27.345711
20
13.736589
70
0
0
VERTEX
8
Layer 1
10
27.356030
20
13.735293
70
0
0
VERTEX
8
Layer 1
10
27.366084
20
13.733494
70
0
0
VERTEX
8
Layer 1
10
27.493613
20
13.679383
70
0
0
VERTEX
8
Layer 1
10
27.606061
20
13.504047
70
0
0
VERTEX
8
Layer 1
10
27.548117
20
13.256768
70
0
0
VERTEX
8
Layer 1
10
27.547588
20
13.256265
70
0
0
VERTEX
8
Layer 1
10
27.511870
20
13.205624
70
0
0
VERTEX
8
Layer 1
10
27.512134
20
13.205360
70
0
0
VERTEX
8
Layer 1
10
24.483849
20
8.848524
70
0
0
VERTEX
8
Layer 1
10
27.372170
20
1.861893
70
0
0
VERTEX
8
Layer 1
10
27.403920
20
1.712033
70
0
0
VERTEX
8
Layer 1
10
27.283799
20
1.490339
70
0
0
VERTEX
8
Layer 1
10
27.136426
20
1.431945
70
0
0
VERTEX
8
Layer 1
10
27.032181
20
1.427553
70
0
0
VERTEX
8
Layer 1
10
24.967269
20
1.526243
70
0
0
VERTEX
8
Layer 1
10
24.757719
20
1.597310
70
0
0
VERTEX
8
Layer 1
10
24.632148
20
1.778946
70
0
0
VERTEX
8
Layer 1
10
22.770251
20
6.392083
70
0
0
VERTEX
8
Layer 1
10
22.463546
20
5.955944
70
0
0
VERTEX
8
Layer 1
10
22.275190
20
2.002175
70
0
0
VERTEX
8
Layer 1
10
22.274952
20
1.994422
70
0
0
VERTEX
8
Layer 1
10
22.274158
20
1.986670
70
0
0
VERTEX
8
Layer 1
10
22.271327
20
1.960079
70
0
0
VERTEX
8
Layer 1
10
22.270030
20
1.952565
70
0
0
VERTEX
8
Layer 1
10
22.161763
20
1.750530
70
0
0
VERTEX
8
Layer 1
10
21.955071
20
1.670943
70
0
0
VERTEX
8
Layer 1
10
21.928454
20
1.671208
70
0
0
VERTEX
8
Layer 1
10
20.012291
20
1.762409
70
0
0
VERTEX
8
Layer 1
10
19.761651
20
1.894701
70
0
0
VERTEX
8
Layer 1
10
19.698601
20
2.124915
70
0
0
VERTEX
8
Layer 1
10
19.698601
20
2.125682
70
0
0
VERTEX
8
Layer 1
10
20.284891
20
13.727805
70
0
0
VERTEX
8
Layer 1
10
20.370404
20
13.950796
70
0
0
VERTEX
8
Layer 1
10
20.631362
20
14.058269
70
0
0
VERTEX
8
Layer 1
10
20.631362
20
14.058269
70
0
0
SEQEND
8
Layer 1
0
POLYLINE
8
Layer 1
62
7
70
1
10
0.000000
20
0.000000
66
1
0
VERTEX
8
Layer 1
10
31.939931
20
14.014613
70
0
0
VERTEX
8
Layer 1
10
32.823142
20
14.027092
70
0
0
VERTEX
8
Layer 1
10
33.667658
20
13.819801
70
0
0
VERTEX
8
Layer 1
10
33.777460
20
13.775351
70
0
0
VERTEX
8
Layer 1
10
33.779312
20
13.774583
70
0
0
VERTEX
8
Layer 1
10
34.575243
20
13.308607
70
0
0
VERTEX
8
Layer 1
10
35.230285
20
12.662250
70
0
0
VERTEX
8
Layer 1
10
35.303310
20
12.568191
70
0
0
VERTEX
8
Layer 1
10
35.735539
20
11.799170
70
0
0
VERTEX
8
Layer 1
10
35.963180
20
10.921267
70
0
0
VERTEX
8
Layer 1
10
36.149182
20
9.544854
70
0
0
VERTEX
8
Layer 1
10
36.088063
20
9.297866
70
0
0
VERTEX
8
Layer 1
10
35.866078
20
9.172797
70
0
0
VERTEX
8
Layer 1
10
33.981718
20
8.917766
70
0
0
VERTEX
8
Layer 1
10
33.734597
20
8.979017
70
0
0
VERTEX
8
Layer 1
10
33.610243
20
9.198118
70
0
0
VERTEX
8
Layer 1
10
33.609978
20
9.197853
70
0
0
VERTEX
8
Layer 1
10
33.407043
20
10.572203
70
0
0
VERTEX
8
Layer 1
10
33.406779
20
10.575299
70
0
0
VERTEX
8
Layer 1
10
33.284674
20
10.982826
70
0
0
VERTEX
8
Layer 1
10
33.049856
20
11.277581
70
0
0
VERTEX
8
Layer 1
10
33.010169
20
11.309093
70
0
0
VERTEX
8
Layer 1
10
32.660655
20
11.486089
70
0
0
VERTEX
8
Layer 1
10
32.279391
20
11.507531
70
0
0
VERTEX
8
Layer 1
10
31.916846
20
11.381311
70
0
0
VERTEX
8
Layer 1
10
31.627723
20
11.103168
70
0
0
VERTEX
8
Layer 1
10
31.595973
20
11.057184
70
0
0
VERTEX
8
Layer 1
10
31.596237
20
11.056919
70
0
0
VERTEX
8
Layer 1
10
31.431402
20
10.311748
70
0
0
VERTEX
8
Layer 1
10
31.452040
20
10.185912
70
0
0
VERTEX
8
Layer 1
10
31.724560
20
9.558295
70
0
0
VERTEX
8
Layer 1
10
31.753929
20
9.525486
70
0
0
VERTEX
8
Layer 1
10
31.817164
20
9.463468
70
0
0
VERTEX
8
Layer 1
10
32.570432
20
9.046194
70
0
0
VERTEX
8
Layer 1
10
32.686584
20
9.003543
70
0
0
VERTEX
8
Layer 1
10
32.688965
20
9.002776
70
0
0
VERTEX
8
Layer 1
10
32.900102
20
8.921655
70
0
0
VERTEX
8
Layer 1
10
33.467104
20
8.696865
70
0
0
VERTEX
8
Layer 1
10
34.029078
20
8.485490
70
0
0
VERTEX
8
Layer 1
10
34.332290
20
8.378016
70
0
0
VERTEX
8
Layer 1
10
34.338375
20
8.375953
70
0
0
VERTEX
8
Layer 1
10
34.343932
20
8.373624
70
0
0
VERTEX
8
Layer 1
10
35.160832
20
7.961596
70
0
0
VERTEX
8
Layer 1
10
35.835651
20
7.421734
70
0
0
VERTEX
8
Layer 1
10
35.914761
20
7.339846
70
0
0
VERTEX
8
Layer 1
10
35.917407
20
7.336988
70
0
0
VERTEX
8
Layer 1
10
35.988580
20
7.258698
70
0
0
VERTEX
8
Layer 1
10
35.990432
20
7.256634
70
0
0
VERTEX
8
Layer 1
10
35.992019
20
7.254835
70
0
0
VERTEX
8
Layer 1
10
36.458214
20
6.503750
70
0
0
VERTEX
8
Layer 1
10
36.701366
20
5.589550
70
0
0
VERTEX
8
Layer 1
10
36.701895
20
5.585422
70
0
0
VERTEX
8
Layer 1
10
36.716183
20
5.466042
70
0
0
VERTEX
8
Layer 1
10
36.716712
20
5.462444
70
0
0
VERTEX
8
Layer 1
10
36.706823
20
4.538699
70
0
0
VERTEX
8
Layer 1
10
36.474089
20
3.672619
70
0
0
VERTEX
8
Layer 1
10
36.473031
20
3.669788
70
0
0
VERTEX
8
Layer 1
10
36.471708
20
3.667195
70
0
0
VERTEX
8
Layer 1
10
36.426994
20
3.565384
70
0
0
VERTEX
8
Layer 1
10
36.426200
20
3.563585
70
0
0
VERTEX
8
Layer 1
10
36.425406
20
3.561521
70
0
0
VERTEX
8
Layer 1
10
35.973300
20
2.815030
70
0
0
VERTEX
8
Layer 1
10
35.360460
20
2.199845
70
0
0
VERTEX
8
Layer 1
10
34.556623
20
1.724892
70
0
0
VERTEX
8
Layer 1
10
33.636701
20
1.478697
70
0
0
VERTEX
8
Layer 1
10
33.634585
20
1.478433
70
0
0
VERTEX
8
Layer 1
10
33.632997
20
1.478194
70
0
0
VERTEX
8
Layer 1
10
33.521608
20
1.464754
70
0
0
VERTEX
8
Layer 1
10
33.516845
20
1.464224
70
0
0
VERTEX
8
Layer 1
10
32.633237
20
1.485662
70
0
0
VERTEX
8
Layer 1
10
31.785943
20
1.734231
70
0
0
VERTEX
8
Layer 1
10
31.784620
20
1.734761
70
0
0
VERTEX
8
Layer 1
10
30.985381
20
2.211546
70
0
0
VERTEX
8
Layer 1
10
30.323064
20
2.871647
70
0
0
VERTEX
8
Layer 1
10
30.320947
20
2.874214
70
0
0
VERTEX
8
Layer 1
10
29.844995
20
3.696978
70
0
0
VERTEX
8
Layer 1
10
29.597842
20
4.628108
70
0
0
VERTEX
8
Layer 1
10
29.493332
20
5.398362
70
0
0
VERTEX
8
Layer 1
10
29.548894
20
5.654399
70
0
0
VERTEX
8
Layer 1
10
29.789665
20
5.797300
70
0
0
VERTEX
8
Layer 1
10
31.674289
20
6.052332
70
0
0
VERTEX
8
Layer 1
10
31.953424
20
5.956976
70
0
0
VERTEX
8
Layer 1
10
32.049733
20
5.744331
70
0
0
VERTEX
8
Layer 1
10
32.153184
20
4.979527
70
0
0
VERTEX
8
Layer 1
10
32.163239
20
4.914651
70
0
0
VERTEX
8
Layer 1
10
32.556674
20
4.243140
70
0
0
VERTEX
8
Layer 1
10
32.599801
20
4.209273
70
0
0
VERTEX
8
Layer 1
10
32.675207
20
4.157865
70
0
0
VERTEX
8
Layer 1
10
33.238239
20
4.021181
70
0
0
VERTEX
8
Layer 1
10
33.297241
20
4.027637
70
0
0
VERTEX
8
Layer 1
10
33.915836
20
4.392735
70
0
0
VERTEX
8
Layer 1
10
33.949438
20
4.439249
70
0
0
VERTEX
8
Layer 1
10
34.126180
20
4.828943
70
0
0
VERTEX
8
Layer 1
10
34.144965
20
5.243581
70
0
0
VERTEX
8
Layer 1
10
33.963461
20
5.617070
70
0
0
VERTEX
8
Layer 1
10
33.460489
20
5.955415
70
0
0
VERTEX
8
Layer 1
10
33.355450
20
6.000130
70
0
0
VERTEX
8
Layer 1
10
33.352539
20
6.001426
70
0
0
VERTEX
8
Layer 1
10
33.349893
20
6.002458
70
0
0
VERTEX
8
Layer 1
10
33.195906
20
6.068074
70
0
0
VERTEX
8
Layer 1
10
32.992706
20
6.147158
70
0
0
VERTEX
8
Layer 1
10
32.983711
20
6.150757
70
0
0
VERTEX
8
Layer 1
10
32.465128
20
6.358507
70
0
0
VERTEX
8
Layer 1
10
31.866377
20
6.586393
70
0
0
VERTEX
8
Layer 1
10
31.863466
20
6.587424
70
0
0
VERTEX
8
Layer 1
10
31.860556
20
6.588721
70
0
0
VERTEX
8
Layer 1
10
31.301492
20
6.810680
70
0
0
VERTEX
8
Layer 1
10
31.297523
20
6.812214
70
0
0
VERTEX
8
Layer 1
10
31.294083
20
6.813775
70
0
0
VERTEX
8
Layer 1
10
30.354219
20
7.346242
70
0
0
VERTEX
8
Layer 1
10
29.633031
20
8.066152
70
0
0
VERTEX
8
Layer 1
10
29.631444
20
8.068719
70
0
0
VERTEX
8
Layer 1
10
29.149208
20
8.952178
70
0
0
VERTEX
8
Layer 1
10
28.892199
20
9.964482
70
0
0
VERTEX
8
Layer 1
10
28.886345
20
10.938978
70
0
0
VERTEX
8
Layer 1
10
29.142230
20
11.855828
70
0
0
VERTEX
8
Layer 1
10
29.142759
20
11.857124
70
0
0
VERTEX
8
Layer 1
10
29.578891
20
12.605530
70
0
0
VERTEX
8
Layer 1
10
30.168018
20
13.226817
70
0
0
VERTEX
8
Layer 1
10
30.171193
20
13.229384
70
0
0
VERTEX
8
Layer 1
10
30.254537
20
13.297091
70
0
0
VERTEX
8
Layer 1
10
30.256918
20
13.298890
70
0
0
VERTEX
8
Layer 1
10
31.049113
20
13.771885
70
0
0
VERTEX
8
Layer 1
10
31.939931
20
14.014613
70
0
0
VERTEX
8
Layer 1
10
31.939931
20
14.014613
70
0
0
SEQEND
8
Layer 1
0
POLYLINE
8
Layer 1
62
7
70
1
10
0.000000
20
0.000000
66
1
0
VERTEX
8
Layer 1
10
15.107425
20
13.747702
70
0
0
VERTEX
8
Layer 1
10
12.671647
20
13.435838
70
0
0
VERTEX
8
Layer 1
10
12.598014
20
13.359612
70
0
0
VERTEX
8
Layer 1
10
11.992357
20
1.553892
70
0
0
VERTEX
8
Layer 1
10
12.068345
20
1.480258
70
0
0
VERTEX
8
Layer 1
10
13.938232
20
1.719521
70
0
0
VERTEX
8
Layer 1
10
14.009829
20
1.812019
70
0
0
VERTEX
8
Layer 1
10
14.032821
20
3.065428
70
0
0
VERTEX
8
Layer 1
10
16.320776
20
3.358427
70
0
0
VERTEX
8
Layer 1
10
16.658754
20
2.151267
70
0
0
VERTEX
8
Layer 1
10
16.740140
20
2.079697
70
0
0
VERTEX
8
Layer 1
10
16.759507
20
2.080729
70
0
0
VERTEX
8
Layer 1
10
18.621166
20
2.319224
70
0
0
VERTEX
8
Layer 1
10
18.676464
20
2.409659
70
0
0
VERTEX
8
Layer 1
10
15.197859
20
13.692669
70
0
0
VERTEX
8
Layer 1
10
15.107425
20
13.747702
70
0
0
VERTEX
8
Layer 1
10
15.107425
20
13.747702
70
0
0
SEQEND
8
Layer 1
0
POLYLINE
8
Layer 1
62
7
70
1
10
0.000000
20
0.000000
66
1
0
VERTEX
8
Layer 1
10
39.008530
20
16.914443
70
0
0
VERTEX
8
Layer 1
10
38.949495
20
17.114587
70
0
0
VERTEX
8
Layer 1
10
38.630705
20
17.197891
70
0
0
VERTEX
8
Layer 1
10
38.500266
20
17.190376
70
0
0
VERTEX
8
Layer 1
10
38.205322
20
17.717598
70
0
0
VERTEX
8
Layer 1
10
37.678207
20
18.012555
70
0
0
VERTEX
8
Layer 1
10
37.685615
20
18.142780
70
0
0
VERTEX
8
Layer 1
10
37.602371
20
18.461683
70
0
0
VERTEX
8
Layer 1
10
37.402247
20
18.520792
70
0
0
VERTEX
8
Layer 1
10
37.202090
20
18.461632
70
0
0
VERTEX
8
Layer 1
10
37.118614
20
18.142780
70
0
0
VERTEX
8
Layer 1
10
37.118878
20
18.113067
70
0
0
VERTEX
8
Layer 1
10
36.362700
20
18.142780
70
0
0
VERTEX
8
Layer 1
10
35.606522
20
18.113067
70
0
0
VERTEX
8
Layer 1
10
35.607051
20
18.142780
70
0
0
VERTEX
8
Layer 1
10
35.523575
20
18.461642
70
0
0
VERTEX
8
Layer 1
10
35.323418
20
18.520792
70
0
0
VERTEX
8
Layer 1
10
35.123162
20
18.461650
70
0
0
VERTEX
8
Layer 1
10
35.039785
20
18.142780
70
0
0
VERTEX
8
Layer 1
10
35.047458
20
18.012555
70
0
0
VERTEX
8
Layer 1
10
34.520210
20
17.717609
70
0
0
VERTEX
8
Layer 1
10
34.225134
20
17.190376
70
0
0
VERTEX
8
Layer 1
10
34.094959
20
17.197891
70
0
0
VERTEX
8
Layer 1
10
33.776037
20
17.114577
70
0
0
VERTEX
8
Layer 1
10
33.716870
20
16.914443
70
0
0
VERTEX
8
Layer 1
10
33.776037
20
16.714269
70
0
0
VERTEX
8
Layer 1
10
34.094959
20
16.630995
70
0
0
VERTEX
8
Layer 1
10
34.124592
20
16.631260
70
0
0
VERTEX
8
Layer 1
10
34.094959
20
15.874976
70
0
0
VERTEX
8
Layer 1
10
34.124592
20
15.118692
70
0
0
VERTEX
8
Layer 1
10
34.094959
20
15.118930
70
0
0
VERTEX
8
Layer 1
10
33.776037
20
15.035646
70
0
0
VERTEX
8
Layer 1
10
33.716870
20
14.835482
70
0
0
VERTEX
8
Layer 1
10
33.776037
20
14.635332
70
0
0
VERTEX
8
Layer 1
10
34.094959
20
14.552061
70
0
0
VERTEX
8
Layer 1
10
34.225134
20
14.559548
70
0
0
VERTEX
8
Layer 1
10
34.520210
20
14.032307
70
0
0
VERTEX
8
Layer 1
10
35.047458
20
13.737357
70
0
0
VERTEX
8
Layer 1
10
35.039785
20
13.607155
70
0
0
VERTEX
8
Layer 1
10
35.123162
20
13.288244
70
0
0
VERTEX
8
Layer 1
10
35.323418
20
13.229146
70
0
0
VERTEX
8
Layer 1
10
35.523674
20
13.288253
70
0
0
VERTEX
8
Layer 1
10
35.607051
20
13.607155
70
0
0
VERTEX
8
Layer 1
10
35.606522
20
13.636868
70
0
0
VERTEX
8
Layer 1
10
36.362700
20
13.607155
70
0
0
VERTEX
8
Layer 1
10
37.118878
20
13.636868
70
0
0
VERTEX
8
Layer 1
10
37.118614
20
13.607155
70
0
0
VERTEX
8
Layer 1
10
37.201990
20
13.288263
70
0
0
VERTEX
8
Layer 1
10
37.402247
20
13.229146
70
0
0
VERTEX
8
Layer 1
10
37.602371
20
13.288224
70
0
0
VERTEX
8
Layer 1
10
37.685615
20
13.607155
70
0
0
VERTEX
8
Layer 1
10
37.678207
20
13.737357
70
0
0
VERTEX
8
Layer 1
10
38.205322
20
14.032297
70
0
0
VERTEX
8
Layer 1
10
38.500266
20
14.559548
70
0
0
VERTEX
8
Layer 1
10
38.630705
20
14.552061
70
0
0
VERTEX
8
Layer 1
10
38.949495
20
14.635332
70
0
0
VERTEX
8
Layer 1
10
39.008530
20
14.835482
70
0
0
VERTEX
8
Layer 1
10
38.949495
20
15.035646
70
0
0
VERTEX
8
Layer 1
10
38.630705
20
15.118930
70
0
0
VERTEX
8
Layer 1
10
38.600808
20
15.118692
70
0
0
VERTEX
8
Layer 1
10
38.630705
20
15.874976
70
0
0
VERTEX
8
Layer 1
10
38.600808
20
16.631260
70
0
0
VERTEX
8
Layer 1
10
38.630705
20
16.630995
70
0
0
VERTEX
8
Layer 1
10
38.949495
20
16.714269
70
0
0
VERTEX
8
Layer 1
10
39.008530
20
16.914443
70
0
0
VERTEX
8
Layer 1
10
39.008530
20
16.914443
70
0
0
SEQEND
8
Layer 1
0
POLYLINE
8
Layer 1
62
7
70
1
10
0.000000
20
0.000000
66
1
0
VERTEX
8
Layer 1
10
20.618980
20
13.793951
70
0
0
VERTEX
8
Layer 1
10
20.548945
20
13.714629
70
0
0
VERTEX
8
Layer 1
10
19.962682
20
2.112506
70
0
0
VERTEX
8
Layer 1
10
20.024700
20
2.026728
70
0
0
VERTEX
8
Layer 1
10
21.940863
20
1.935526
70
0
0
VERTEX
8
Layer 1
10
22.008808
20
1.995454
70
0
0
VERTEX
8
Layer 1
10
22.010871
20
2.014848
70
0
0
VERTEX
8
Layer 1
10
22.203117
20
6.045082
70
0
0
VERTEX
8
Layer 1
10
22.833566
20
6.942177
70
0
0
VERTEX
8
Layer 1
10
24.884084
20
1.861363
70
0
0
VERTEX
8
Layer 1
10
24.979942
20
1.790561
70
0
0
VERTEX
8
Layer 1
10
27.044616
20
1.691872
70
0
0
VERTEX
8
Layer 1
10
27.130341
20
1.754128
70
0
0
VERTEX
8
Layer 1
10
24.184130
20
8.880830
70
0
0
VERTEX
8
Layer 1
10
27.294911
20
13.356516
70
0
0
VERTEX
8
Layer 1
10
27.330366
20
13.407686
70
0
0
VERTEX
8
Layer 1
10
27.317136
20
13.473567
70
0
0
VERTEX
8
Layer 1
10
27.300468
20
13.475367
70
0
0
VERTEX
8
Layer 1
10
25.359751
20
13.567865
70
0
0
VERTEX
8
Layer 1
10
25.232646
20
13.507672
70
0
0
VERTEX
8
Layer 1
10
22.389648
20
9.612296
70
0
0
VERTEX
8
Layer 1
10
22.580598
20
13.617739
70
0
0
VERTEX
8
Layer 1
10
22.518606
20
13.703516
70
0
0
VERTEX
8
Layer 1
10
20.618980
20
13.793951
70
0
0
VERTEX
8
Layer 1
10
20.618980
20
13.793951
70
0
0
SEQEND
8
Layer 1
0
POLYLINE
8
Layer 1
62
7
70
1
10
0.000000
20
0.000000
66
1
0
VERTEX
8
Layer 1
10
33.674008
20
13.531961
70
0
0
VERTEX
8
Layer 1
10
32.846623
20
13.757862
70
0
0
VERTEX
8
Layer 1
10
31.975385
20
13.752623
70
0
0
VERTEX
8
Layer 1
10
31.152664
20
13.528568
70
0
0
VERTEX
8
Layer 1
10
30.421224
20
13.091668
70
0
0
VERTEX
8
Layer 1
10
30.337616
20
13.023988
70
0
0
VERTEX
8
Layer 1
10
29.790756
20
12.447075
70
0
0
VERTEX
8
Layer 1
10
29.384588
20
11.749889
70
0
0
VERTEX
8
Layer 1
10
29.148613
20
10.904546
70
0
0
VERTEX
8
Layer 1
10
29.154136
20
10.000148
70
0
0
VERTEX
8
Layer 1
10
29.395568
20
9.048225
70
0
0
VERTEX
8
Layer 1
10
29.844962
20
8.224532
70
0
0
VERTEX
8
Layer 1
10
30.513034
20
7.557720
70
0
0
VERTEX
8
Layer 1
10
31.396213
20
7.057694
70
0
0
VERTEX
8
Layer 1
10
31.960568
20
6.833672
70
0
0
VERTEX
8
Layer 1
10
32.558790
20
6.606025
70
0
0
VERTEX
8
Layer 1
10
33.088221
20
6.393908
70
0
0
VERTEX
8
Layer 1
10
33.295125
20
6.313555
70
0
0
VERTEX
8
Layer 1
10
33.458637
20
6.243784
70
0
0
VERTEX
8
Layer 1
10
33.563941
20
6.199069
70
0
0
VERTEX
8
Layer 1
10
34.157268
20
5.797221
70
0
0
VERTEX
8
Layer 1
10
34.406902
20
5.279247
70
0
0
VERTEX
8
Layer 1
10
34.382825
20
4.764897
70
0
0
VERTEX
8
Layer 1
10
34.165867
20
4.287060
70
0
0
VERTEX
8
Layer 1
10
34.125915
20
4.232027
70
0
0
VERTEX
8
Layer 1
10
33.772664
20
3.914749
70
0
0
VERTEX
8
Layer 1
10
33.327139
20
3.764615
70
0
0
VERTEX
8
Layer 1
10
33.262846
20
3.757630
70
0
0
VERTEX
8
Layer 1
10
32.834420
20
3.798184
70
0
0
VERTEX
8
Layer 1
10
32.442109
20
3.996892
70
0
0
VERTEX
8
Layer 1
10
32.388928
20
4.038220
70
0
0
VERTEX
8
Layer 1
10
32.068948
20
4.411249
70
0
0
VERTEX
8
Layer 1
10
31.902360
20
4.870995
70
0
0
VERTEX
8
Layer 1
10
31.891776
20
4.938702
70
0
0
VERTEX
8
Layer 1
10
31.787531
20
5.708929
70
0
0
VERTEX
8
Layer 1
10
31.709743
20
5.790315
70
0
0
VERTEX
8
Layer 1
10
29.825119
20
5.535310
70
0
0
VERTEX
8
Layer 1
10
29.755269
20
5.434001
70
0
0
VERTEX
8
Layer 1
10
29.859779
20
4.663774
70
0
0
VERTEX
8
Layer 1
10
30.089569
20
3.797913
70
0
0
VERTEX
8
Layer 1
10
30.530497
20
3.035715
70
0
0
VERTEX
8
Layer 1
10
31.147769
20
2.420540
70
0
0
VERTEX
8
Layer 1
10
31.892041
20
1.976854
70
0
0
VERTEX
8
Layer 1
10
32.673884
20
1.747229
70
0
0
VERTEX
8
Layer 1
10
33.489858
20
1.727511
70
0
0
VERTEX
8
Layer 1
10
33.600983
20
1.740952
70
0
0
VERTEX
8
Layer 1
10
34.454527
20
1.969098
70
0
0
VERTEX
8
Layer 1
10
35.196154
20
2.407331
70
0
0
VERTEX
8
Layer 1
10
35.764709
20
2.978155
70
0
0
VERTEX
8
Layer 1
10
36.184636
20
3.671852
70
0
0
VERTEX
8
Layer 1
10
36.229350
20
3.773637
70
0
0
VERTEX
8
Layer 1
10
36.444489
20
4.574173
70
0
0
VERTEX
8
Layer 1
10
36.453452
20
5.434795
70
0
0
VERTEX
8
Layer 1
10
36.439165
20
5.554148
70
0
0
VERTEX
8
Layer 1
10
36.214567
20
6.400563
70
0
0
VERTEX
8
Layer 1
10
35.792524
20
7.080925
70
0
0
VERTEX
8
Layer 1
10
35.721351
20
7.159215
70
0
0
VERTEX
8
Layer 1
10
35.064953
20
7.708605
70
0
0
VERTEX
8
Layer 1
10
34.246830
20
8.127641
70
0
0
VERTEX
8
Layer 1
10
33.940178
20
8.236411
70
0
0
VERTEX
8
Layer 1
10
33.368943
20
8.451147
70
0
0
VERTEX
8
Layer 1
10
32.804588
20
8.675143
70
0
0
VERTEX
8
Layer 1
10
32.595567
20
8.755259
70
0
0
VERTEX
8
Layer 1
10
32.479151
20
8.797883
70
0
0
VERTEX
8
Layer 1
10
31.561048
20
9.344353
70
0
0
VERTEX
8
Layer 1
10
31.523477
20
9.386210
70
0
0
VERTEX
8
Layer 1
10
31.191690
20
10.138896
70
0
0
VERTEX
8
Layer 1
10
31.169729
20
10.272722
70
0
0
VERTEX
8
Layer 1
10
31.186531
20
10.758215
70
0
0
VERTEX
8
Layer 1
10
31.373988
20
11.200826
70
0
0
VERTEX
8
Layer 1
10
31.412088
20
11.256653
70
0
0
VERTEX
8
Layer 1
10
31.777807
20
11.606534
70
0
0
VERTEX
8
Layer 1
10
32.243936
20
11.769785
70
0
0
VERTEX
8
Layer 1
10
32.729446
20
11.741597
70
0
0
VERTEX
8
Layer 1
10
33.170506
20
11.519675
70
0
0
VERTEX
8
Layer 1
10
33.504245
20
11.133083
70
0
0
VERTEX
8
Layer 1
10
33.668716
20
10.610938
70
0
0
VERTEX
8
Layer 1
10
33.871651
20
9.236615
70
0
0
VERTEX
8
Layer 1
10
33.945999
20
9.180020
70
0
0
VERTEX
8
Layer 1
10
35.830359
20
9.435052
70
0
0
VERTEX
8
Layer 1
10
35.886980
20
9.509479
70
0
0
VERTEX
8
Layer 1
10
35.700978
20
10.885866
70
0
0
VERTEX
8
Layer 1
10
35.469005
20
11.751416
70
0
0
VERTEX
8
Layer 1
10
35.023910
20
12.496357
70
0
0
VERTEX
8
Layer 1
10
34.414741
20
13.098147
70
0
0
VERTEX
8
Layer 1
10
33.674008
20
13.531961
70
0
0
VERTEX
8
Layer 1
10
33.674008
20
13.531961
70
0
0
SEQEND
8
Layer 1
0
POLYLINE
8
Layer 1
62
7
70
1
10
0.000000
20
0.000000
66
1
0
VERTEX
8
Layer 1
10
38.659545
20
13.869913
70
0
0
VERTEX
8
Layer 1
10
38.604776
20
13.807921
70
0
0
VERTEX
8
Layer 1
10
40.328799
20
6.813775
70
0
0
VERTEX
8
Layer 1
10
39.936423
20
2.017679
70
0
0
VERTEX
8
Layer 1
10
39.935893
20
2.002175
70
0
0
VERTEX
8
Layer 1
10
39.988810
20
1.947406
70
0
0
VERTEX
8
Layer 1
10
41.925822
20
1.795482
70
0
0
VERTEX
8
Layer 1
10
41.994614
20
1.840964
70
0
0
VERTEX
8
Layer 1
10
41.996995
20
1.856204
70
0
0
VERTEX
8
Layer 1
10
42.361855
20
6.720748
70
0
0
VERTEX
8
Layer 1
10
45.113254
20
13.150856
70
0
0
VERTEX
8
Layer 1
10
45.174372
20
13.292698
70
0
0
VERTEX
8
Layer 1
10
45.145004
20
13.360379
70
0
0
VERTEX
8
Layer 1
10
45.130187
20
13.362469
70
0
0
VERTEX
8
Layer 1
10
43.234185
20
13.511297
70
0
0
VERTEX
8
Layer 1
10
43.146608
20
13.451845
70
0
0
VERTEX
8
Layer 1
10
41.521010
20
9.009497
70
0
0
VERTEX
8
Layer 1
10
40.632540
20
13.648748
70
0
0
VERTEX
8
Layer 1
10
40.558193
20
13.720053
70
0
0
VERTEX
8
Layer 1
10
40.538878
20
13.722646
70
0
0
VERTEX
8
Layer 1
10
38.659545
20
13.869913
70
0
0
VERTEX
8
Layer 1
10
38.659545
20
13.869913
70
0
0
SEQEND
8
Layer 1
0
POLYLINE
8
Layer 1
62
7
70
1
10
0.000000
20
0.000000
66
1
0
VERTEX
8
Layer 1
10
14.461974
20
9.738899
70
0
0
VERTEX
8
Layer 1
10
15.754674
20
5.111289
70
0
0
VERTEX
8
Layer 1
10
14.138998
20
4.904597
70
0
0
VERTEX
8
Layer 1
10
14.289890
20
9.716939
70
0
0
VERTEX
8
Layer 1
10
14.283698
20
10.349715
70
0
0
VERTEX
8
Layer 1
10
14.461974
20
9.738899
70
0
0
VERTEX
8
Layer 1
10
14.461974
20
9.738899
70
0
0
SEQEND
8
Layer 1
0
POLYLINE
8
Layer 1
62
7
70
1
10
0.000000
20
0.000000
66
1
0
VERTEX
8
Layer 1
10
14.413159
20
5.206381
70
0
0
VERTEX
8
Layer 1
10
15.417490
20
5.334783
70
0
0
VERTEX
8
Layer 1
10
14.518066
20
8.554229
70
0
0
VERTEX
8
Layer 1
10
14.413159
20
5.206381
70
0
0
VERTEX
8
Layer 1
10
14.413159
20
5.206381
70
0
0
SEQEND
8
Layer 1
0
POLYLINE
8
Layer 1
62
7
70
1
10
0.000000
20
0.000000
66
1
0
VERTEX
8
Layer 1
10
37.988298
20
15.874976
70
0
0
VERTEX
8
Layer 1
10
37.913950
20
16.891424
70
0
0
VERTEX
8
Layer 1
10
37.751232
20
17.262732
70
0
0
VERTEX
8
Layer 1
10
37.379492
20
17.425771
70
0
0
VERTEX
8
Layer 1
10
36.362700
20
17.500185
70
0
0
VERTEX
8
Layer 1
10
35.346172
20
17.425771
70
0
0
VERTEX
8
Layer 1
10
34.974698
20
17.262991
70
0
0
VERTEX
8
Layer 1
10
34.811979
20
16.891424
70
0
0
VERTEX
8
Layer 1
10
34.737367
20
15.874976
70
0
0
VERTEX
8
Layer 1
10
34.811979
20
14.858236
70
0
0
VERTEX
8
Layer 1
10
34.974698
20
14.486682
70
0
0
VERTEX
8
Layer 1
10
35.346172
20
14.323884
70
0
0
VERTEX
8
Layer 1
10
36.362700
20
14.249748
70
0
0
VERTEX
8
Layer 1
10
36.362700
20
13.985165
70
0
0
VERTEX
8
Layer 1
10
35.290874
20
14.065208
70
0
0
VERTEX
8
Layer 1
10
34.787373
20
14.299596
70
0
0
VERTEX
8
Layer 1
10
34.552886
20
14.803123
70
0
0
VERTEX
8
Layer 1
10
34.472784
20
15.874976
70
0
0
VERTEX
8
Layer 1
10
34.552886
20
16.946696
70
0
0
VERTEX
8
Layer 1
10
34.787373
20
17.450059
70
0
0
VERTEX
8
Layer 1
10
35.290874
20
17.684580
70
0
0
VERTEX
8
Layer 1
10
36.362700
20
17.764768
70
0
0
VERTEX
8
Layer 1
10
37.434658
20
17.684568
70
0
0
VERTEX
8
Layer 1
10
37.938292
20
17.450059
70
0
0
VERTEX
8
Layer 1
10
38.172778
20
16.946743
70
0
0
VERTEX
8
Layer 1
10
38.252881
20
15.874976
70
0
0
VERTEX
8
Layer 1
10
38.172778
20
14.803084
70
0
0
VERTEX
8
Layer 1
10
37.938292
20
14.299596
70
0
0
VERTEX
8
Layer 1
10
37.434757
20
14.065208
70
0
0
VERTEX
8
Layer 1
10
36.362700
20
13.985165
70
0
0
VERTEX
8
Layer 1
10
36.362700
20
14.249748
70
0
0
VERTEX
8
Layer 1
10
37.379757
20
14.323884
70
0
0
VERTEX
8
Layer 1
10
37.751232
20
14.486682
70
0
0
VERTEX
8
Layer 1
10
37.913950
20
14.858236
70
0
0
VERTEX
8
Layer 1
10
37.988298
20
15.874976
70
0
0
VERTEX
8
Layer 1
10
37.988298
20
15.874976
70
0
0
SEQEND
8
Layer 1
0
POLYLINE
8
Layer 1
62
7
70
1
10
0.000000
20
0.000000
66
1
0
VERTEX
8
Layer 1
10
37.118614
20
15.874976
70
0
0
VERTEX
8
Layer 1
10
36.985264
20
16.497407
70
0
0
VERTEX
8
Layer 1
10
36.362700
20
16.630995
70
0
0
VERTEX
8
Layer 1
10
35.740401
20
16.497407
70
0
0
VERTEX
8
Layer 1
10
35.607051
20
15.874976
70
0
0
VERTEX
8
Layer 1
10
35.609168
20
15.742684
70
0
0
VERTEX
8
Layer 1
10
35.740401
20
15.252518
70
0
0
VERTEX
8
Layer 1
10
36.362700
20
15.118930
70
0
0
VERTEX
8
Layer 1
10
36.985264
20
15.252518
70
0
0
VERTEX
8
Layer 1
10
37.118614
20
15.874976
70
0
0
VERTEX
8
Layer 1
10
37.118614
20
15.874976
70
0
0
SEQEND
8
Layer 1
0
POLYLINE
8
Layer 1
62
7
70
1
10
0.000000
20
0.000000
66
1
0
VERTEX
8
Layer 1
10
36.476206
20
15.874976
70
0
0
VERTEX
8
Layer 1
10
36.474089
20
15.986339
70
0
0
VERTEX
8
Layer 1
10
36.362700
20
15.988402
70
0
0
VERTEX
8
Layer 1
10
36.251575
20
15.986339
70
0
0
VERTEX
8
Layer 1
10
36.249458
20
15.874976
70
0
0
VERTEX
8
Layer 1
10
36.251575
20
15.766444
70
0
0
VERTEX
8
Layer 1
10
36.251575
20
15.763851
70
0
0
VERTEX
8
Layer 1
10
36.254486
20
15.763613
70
0
0
VERTEX
8
Layer 1
10
36.362700
20
15.761522
70
0
0
VERTEX
8
Layer 1
10
36.474089
20
15.763613
70
0
0
VERTEX
8
Layer 1
10
36.476206
20
15.874976
70
0
0
VERTEX
8
Layer 1
10
36.476206
20
15.874976
70
0
0
SEQEND
8
Layer 1
0
POLYLINE
8
Layer 1
62
7
70
1
10
0.000000
20
0.000000
66
1
0
VERTEX
8
Layer 1
10
1.322746
20
2.395451
70
0
0
VERTEX
8
Layer 1
10
1.380107
20
2.325151
70
0
0
VERTEX
8
Layer 1
10
3.285671
20
2.104515
70
0
0
VERTEX
8
Layer 1
10
3.360866
20
2.178916
70
0
0
VERTEX
8
Layer 1
10
4.371652
20
10.759766
70
0
0
VERTEX
8
Layer 1
10
5.824266
20
7.994583
70
0
0
VERTEX
8
Layer 1
10
7.886928
20
10.352573
70
0
0
VERTEX
8
Layer 1
10
6.908977
20
1.767833
70
0
0
VERTEX
8
Layer 1
10
6.965280
20
1.677902
70
0
0
VERTEX
8
Layer 1
10
8.870595
20
1.457266
70
0
0
VERTEX
8
Layer 1
10
8.942694
20
1.512537
70
0
0
VERTEX
8
Layer 1
10
8.945789
20
1.531667
70
0
0
VERTEX
8
Layer 1
10
10.251903
20
13.091668
70
0
0
VERTEX
8
Layer 1
10
10.202823
20
13.163000
70
0
0
VERTEX
8
Layer 1
10
10.185758
20
13.165831
70
0
0
VERTEX
8
Layer 1
10
8.124127
20
13.404829
70
0
0
VERTEX
8
Layer 1
10
7.993396
20
13.353420
70
0
0
VERTEX
8
Layer 1
10
6.208758
20
11.312718
70
0
0
VERTEX
8
Layer 1
10
4.929763
20
13.708438
70
0
0
VERTEX
8
Layer 1
10
4.838562
20
13.784400
70
0
0
VERTEX
8
Layer 1
10
4.822528
20
13.787231
70
0
0
VERTEX
8
Layer 1
10
2.769179
20
14.025196
70
0
0
VERTEX
8
Layer 1
10
2.695783
20
13.967068
70
0
0
VERTEX
8
Layer 1
10
1.324037
20
2.414818
70
0
0
VERTEX
8
Layer 1
10
1.322746
20
2.395451
70
0
0
VERTEX
8
Layer 1
10
1.322746
20
2.395451
70
0
0
SEQEND
8
Layer 1
0
POLYLINE
8
Layer 1
62
7
70
1
10
0.000000
20
0.000000
66
1
0
VERTEX
8
Layer 1
10
36.740789
20
15.874976
70
0
0
VERTEX
8
Layer 1
10
36.714860
20
15.539326
70
0
0
VERTEX
8
Layer 1
10
36.711420
20
15.526414
70
0
0
VERTEX
8
Layer 1
10
36.698720
20
15.523054
70
0
0
VERTEX
8
Layer 1
10
36.362700
20
15.496939
70
0
0
VERTEX
8
Layer 1
10
36.243902
20
15.499268
70
0
0
VERTEX
8
Layer 1
10
36.026944
20
15.523054
70
0
0
VERTEX
8
Layer 1
10
36.014244
20
15.526414
70
0
0
VERTEX
8
Layer 1
10
36.010805
20
15.539326
70
0
0
VERTEX
8
Layer 1
10
35.986992
20
15.756098
70
0
0
VERTEX
8
Layer 1
10
35.984875
20
15.874976
70
0
0
VERTEX
8
Layer 1
10
36.010805
20
16.210599
70
0
0
VERTEX
8
Layer 1
10
36.014244
20
16.223511
70
0
0
VERTEX
8
Layer 1
10
36.026944
20
16.226871
70
0
0
VERTEX
8
Layer 1
10
36.362700
20
16.252985
70
0
0
VERTEX
8
Layer 1
10
36.698720
20
16.226871
70
0
0
VERTEX
8
Layer 1
10
36.711420
20
16.223511
70
0
0
VERTEX
8
Layer 1
10
36.714860
20
16.210599
70
0
0
VERTEX
8
Layer 1
10
36.740789
20
15.874976
70
0
0
VERTEX
8
Layer 1
10
36.740789
20
15.874976
70
0
0
SEQEND
8
Layer 1
0
POLYLINE
8
Layer 1
62
7
70
1
10
0.000000
20
0.000000
66
1
0
VERTEX
8
Layer 1
10
37.383197
20
15.874976
70
0
0
VERTEX
8
Layer 1
10
37.339970
20
15.391199
70
0
0
VERTEX
8
Layer 1
10
37.172324
20
15.065457
70
0
0
VERTEX
8
Layer 1
10
36.846391
20
14.897712
70
0
0
VERTEX
8
Layer 1
10
36.362700
20
14.854347
70
0
0
VERTEX
8
Layer 1
10
35.879274
20
14.897629
70
0
0
VERTEX
8
Layer 1
10
35.553605
20
15.065193
70
0
0
VERTEX
8
Layer 1
10
35.553341
20
15.065457
70
0
0
VERTEX
8
Layer 1
10
35.344849
20
15.732339
70
0
0
VERTEX
8
Layer 1
10
35.344849
20
15.738027
70
0
0
VERTEX
8
Layer 1
10
35.342733
20
15.870319
70
0
0
VERTEX
8
Layer 1
10
35.342468
20
15.872647
70
0
0
VERTEX
8
Layer 1
10
35.342468
20
15.874976
70
0
0
VERTEX
8
Layer 1
10
35.385694
20
16.358719
70
0
0
VERTEX
8
Layer 1
10
35.553341
20
16.684467
70
0
0
VERTEX
8
Layer 1
10
35.879142
20
16.852173
70
0
0
VERTEX
8
Layer 1
10
36.362700
20
16.895578
70
0
0
VERTEX
8
Layer 1
10
36.846490
20
16.852223
70
0
0
VERTEX
8
Layer 1
10
37.172324
20
16.684467
70
0
0
VERTEX
8
Layer 1
10
37.339970
20
16.358719
70
0
0
VERTEX
8
Layer 1
10
37.383197
20
15.874976
70
0
0
VERTEX
8
Layer 1
10
37.383197
20
15.874976
70
0
0
SEQEND
8
Layer 1
0
POLYLINE
8
Layer 1
62
7
70
1
10
0.000000
20
0.000000
66
1
0
VERTEX
8
Layer 1
10
39.273113
20
16.914443
70
0
0
VERTEX
8
Layer 1
10
39.137117
20
16.527384
70
0
0
VERTEX
8
Layer 1
10
38.882589
20
16.393029
70
0
0
VERTEX
8
Layer 1
10
38.895288
20
15.874976
70
0
0
VERTEX
8
Layer 1
10
38.882589
20
15.356896
70
0
0
VERTEX
8
Layer 1
10
39.137117
20
15.222302
70
0
0
VERTEX
8
Layer 1
10
39.273113
20
14.835482
70
0
0
VERTEX
8
Layer 1
10
39.137117
20
14.448423
70
0
0
VERTEX
8
Layer 1
10
38.683887
20
14.288748
70
0
0
VERTEX
8
Layer 1
10
38.607687
20
14.131929
70
0
0
VERTEX
8
Layer 1
10
38.680183
20
14.133728
70
0
0
VERTEX
8
Layer 1
10
40.559516
20
13.986462
70
0
0
VERTEX
8
Layer 1
10
40.574068
20
13.984901
70
0
0
VERTEX
8
Layer 1
10
40.593382
20
13.982308
70
0
0
VERTEX
8
Layer 1
10
40.600791
20
13.981276
70
0
0
VERTEX
8
Layer 1
10
40.608199
20
13.979741
70
0
0
VERTEX
8
Layer 1
10
40.792613
20
13.886449
70
0
0
VERTEX
8
Layer 1
10
40.891832
20
13.698357
70
0
0
VERTEX
8
Layer 1
10
40.892361
20
13.698357
70
0
0
VERTEX
8
Layer 1
10
41.601179
20
9.998058
70
0
0
VERTEX
8
Layer 1
10
42.898165
20
13.542809
70
0
0
VERTEX
8
Layer 1
10
43.030985
20
13.717989
70
0
0
VERTEX
8
Layer 1
10
43.254558
20
13.775086
70
0
0
VERTEX
8
Layer 1
10
43.255087
20
13.775086
70
0
0
VERTEX
8
Layer 1
10
45.151089
20
13.626258
70
0
0
VERTEX
8
Layer 1
10
45.158762
20
13.625491
70
0
0
VERTEX
8
Layer 1
10
45.181251
20
13.622395
70
0
0
VERTEX
8
Layer 1
10
45.192628
20
13.620834
70
0
0
VERTEX
8
Layer 1
10
45.204006
20
13.618268
70
0
0
VERTEX
8
Layer 1
10
45.419641
20
13.442558
70
0
0
VERTEX
8
Layer 1
10
45.425197
20
13.208455
70
0
0
VERTEX
8
Layer 1
10
45.421757
20
13.198136
70
0
0
VERTEX
8
Layer 1
10
45.417524
20
13.188056
70
0
0
VERTEX
8
Layer 1
10
45.356405
20
13.046980
70
0
0
VERTEX
8
Layer 1
10
45.356670
20
13.046716
70
0
0
VERTEX
8
Layer 1
10
42.622469
20
6.657460
70
0
0
VERTEX
8
Layer 1
10
42.261049
20
1.836307
70
0
0
VERTEX
8
Layer 1
10
42.260255
20
1.826227
70
0
0
VERTEX
8
Layer 1
10
42.258668
20
1.816146
70
0
0
VERTEX
8
Layer 1
10
42.256286
20
1.800906
70
0
0
VERTEX
8
Layer 1
10
42.254963
20
1.792122
70
0
0
VERTEX
8
Layer 1
10
42.253111
20
1.783338
70
0
0
VERTEX
8
Layer 1
10
42.118174
20
1.583869
70
0
0
VERTEX
8
Layer 1
10
41.905449
20
1.531667
70
0
0
VERTEX
8
Layer 1
10
39.968173
20
1.683590
70
0
0
VERTEX
8
Layer 1
10
39.760475
20
1.778946
70
0
0
VERTEX
8
Layer 1
10
39.671840
20
1.989792
70
0
0
VERTEX
8
Layer 1
10
39.671310
20
2.000375
70
0
0
VERTEX
8
Layer 1
10
39.671575
20
2.010959
70
0
0
VERTEX
8
Layer 1
10
39.672104
20
2.026463
70
0
0
VERTEX
8
Layer 1
10
39.672369
20
2.032681
70
0
0
VERTEX
8
Layer 1
10
39.672898
20
2.039137
70
0
0
VERTEX
8
Layer 1
10
40.061570
20
6.792079
70
0
0
VERTEX
8
Layer 1
10
38.347866
20
13.744606
70
0
0
VERTEX
8
Layer 1
10
38.345485
20
13.754158
70
0
0
VERTEX
8
Layer 1
10
38.343898
20
13.763974
70
0
0
VERTEX
8
Layer 1
10
38.340458
20
13.796808
70
0
0
VERTEX
8
Layer 1
10
37.948875
20
13.553657
70
0
0
VERTEX
8
Layer 1
10
37.789332
20
13.100717
70
0
0
VERTEX
8
Layer 1
10
37.402247
20
12.964563
70
0
0
VERTEX
8
Layer 1
10
37.015426
20
13.100717
70
0
0
VERTEX
8
Layer 1
10
36.880754
20
13.354955
70
0
0
VERTEX
8
Layer 1
10
36.362700
20
13.342572
70
0
0
VERTEX
8
Layer 1
10
35.844911
20
13.354955
70
0
0
VERTEX
8
Layer 1
10
35.710503
20
13.100717
70
0
0
VERTEX
8
Layer 1
10
35.323683
20
12.964563
70
0
0
VERTEX
8
Layer 1
10
34.936598
20
13.100717
70
0
0
VERTEX
8
Layer 1
10
34.776525
20
13.553657
70
0
0
VERTEX
8
Layer 1
10
34.333084
20
13.845121
70
0
0
VERTEX
8
Layer 1
10
34.041513
20
14.288748
70
0
0
VERTEX
8
Layer 1
10
33.588812
20
14.448423
70
0
0
VERTEX
8
Layer 1
10
33.452287
20
14.835482
70
0
0
VERTEX
8
Layer 1
10
33.588812
20
15.222302
70
0
0
VERTEX
8
Layer 1
10
33.842812
20
15.357160
70
0
0
VERTEX
8
Layer 1
10
33.830376
20
15.874976
70
0
0
VERTEX
8
Layer 1
10
33.842812
20
16.393029
70
0
0
VERTEX
8
Layer 1
10
33.588812
20
16.527384
70
0
0
VERTEX
8
Layer 1
10
33.452287
20
16.914443
70
0
0
VERTEX
8
Layer 1
10
33.588812
20
17.301231
70
0
0
VERTEX
8
Layer 1
10
34.041513
20
17.461169
70
0
0
VERTEX
8
Layer 1
10
34.333084
20
17.904552
70
0
0
VERTEX
8
Layer 1
10
34.776525
20
18.196265
70
0
0
VERTEX
8
Layer 1
10
34.936598
20
18.649208
70
0
0
VERTEX
8
Layer 1
10
35.323418
20
18.785375
70
0
0
VERTEX
8
Layer 1
10
35.710503
20
18.648951
70
0
0
VERTEX
8
Layer 1
10
35.844911
20
18.394962
70
0
0
VERTEX
8
Layer 1
10
36.362700
20
18.407363
70
0
0
VERTEX
8
Layer 1
10
36.880754
20
18.394962
70
0
0
VERTEX
8
Layer 1
10
37.015426
20
18.648951
70
0
0
VERTEX
8
Layer 1
10
37.402247
20
18.785375
70
0
0
VERTEX
8
Layer 1
10
37.789332
20
18.648951
70
0
0
VERTEX
8
Layer 1
10
37.948875
20
18.196265
70
0
0
VERTEX
8
Layer 1
10
38.392581
20
17.904552
70
0
0
VERTEX
8
Layer 1
10
38.683887
20
17.461169
70
0
0
VERTEX
8
Layer 1
10
39.137117
20
17.301231
70
0
0
VERTEX
8
Layer 1
10
39.273113
20
16.914443
70
0
0
VERTEX
8
Layer 1
10
39.273113
20
16.914443
70
0
0
SEQEND
8
Layer 1
 0 
ENDSEC
 0 
EOF